<svg width="24" height="24" viewBox="0 0 24 24" fill="none" xmlns="http://www.w3.org/2000/svg">
<g id="Camada_x0020_1">
<path id="Vector" d="M6.9998 0H4C1.79113 0 0 1.79113 0 4V6.9998C0 9.20867 1.79113 10.9998 4 10.9998H6.9998C9.20867 10.9998 10.9998 9.20867 10.9998 6.9998V4C10.9998 1.79113 9.20867 0 6.9998 0ZM9.0002 6.9998C9.0002 8.10424 8.10424 9.0002 6.9998 9.0002H4C2.89556 9.0002 2.0004 8.10424 2.0004 6.9998V4C2.0004 2.89556 2.89556 2.0004 4 2.0004H6.9998C8.10424 2.0004 9.0002 2.89556 9.0002 4V6.9998ZM6.9998 13.0002H4C1.79113 13.0002 0 14.7913 0 17.0002V18.0076C0 18.56 0.447804 19.0078 1.0002 19.0078C1.55259 19.0078 2.0004 18.56 2.0004 18.0076V17.0002C2.0004 15.8958 2.89556 14.9998 4 14.9998H6.9998C8.10424 14.9998 9.0002 15.8958 9.0002 17.0002V20C9.0002 21.1044 8.10424 22.0004 6.9998 22.0004H6C5.44782 22.0004 5.0002 22.448 5.0002 23.0002C5.0002 23.5524 5.44783 24 6 24H6.9998C9.20867 24 10.9998 22.2089 10.9998 20V17.0002C10.9998 14.7913 9.20867 13.0002 6.9998 13.0002ZM20 13.0002H17.0002C14.7913 13.0002 13.0002 14.7913 13.0002 17.0002V20C13.0002 22.2089 14.7913 24 17.0002 24H20C22.2089 24 24 22.2089 24 20V17.0002C24 14.7913 22.2089 13.0002 20 13.0002ZM22.0004 20C22.0004 21.1044 21.1044 22.0004 20 22.0004H17.0002C15.8958 22.0004 14.9998 21.1044 14.9998 20V17.0002C14.9998 15.8958 15.8958 14.9998 17.0002 14.9998H20C21.1044 14.9998 22.0004 15.8958 22.0004 17.0002V20ZM14.0004 6.9998H17.0002V10.0004C17.0002 10.5526 17.4482 10.9998 18.0004 10.9998C18.5526 10.9998 18.9998 10.5526 18.9998 10.0004V6.9998H22.0004C22.5526 6.9998 22.9998 6.55262 22.9998 6.0004C22.9998 5.44818 22.5526 5.0002 22.0004 5.0002H18.9998V2.0004C18.9998 1.44818 18.5526 1.0002 18.0004 1.0002C17.4482 1.0002 17.0002 1.44818 17.0002 2.0004V5.0002H14.0004C13.4482 5.0002 13.0002 5.44818 13.0002 6.0004C13.0002 6.55262 13.4482 6.9998 14.0004 6.9998ZM1.0002 21.0042H2.9998V22.9966H1.0002V21.0042Z" fill="#21216F"/>
</g>
</svg>
