<?xml version="1.0" encoding="UTF-8" standalone="no"?>
<svg
   width="24"
   height="24"
   viewBox="0 0 24 24"
   fill="none"
   version="1.1"
   id="svg10"
   sodipodi:docname="arrow_left.svg"
   inkscape:version="1.2.2 (732a01da63, 2022-12-09)"
   xmlns:inkscape="http://www.inkscape.org/namespaces/inkscape"
   xmlns:sodipodi="http://sodipodi.sourceforge.net/DTD/sodipodi-0.dtd"
   xmlns="http://www.w3.org/2000/svg"
   xmlns:svg="http://www.w3.org/2000/svg">
  <sodipodi:namedview
     id="namedview12"
     pagecolor="#ffffff"
     bordercolor="#666666"
     borderopacity="1.0"
     inkscape:pageshadow="2"
     inkscape:pageopacity="0.0"
     inkscape:pagecheckerboard="0"
     showgrid="false"
     inkscape:zoom="31.875"
     inkscape:cx="12.015686"
     inkscape:cy="12.015686"
     inkscape:window-width="1920"
     inkscape:window-height="1017"
     inkscape:window-x="1912"
     inkscape:window-y="-8"
     inkscape:window-maximized="1"
     inkscape:current-layer="svg10"
     inkscape:showpageshadow="0"
     inkscape:deskcolor="#d1d1d1" />
  <path
     id="Vector_2"
     d="m 7.999878,11.999978 c -7e-4,-0.732 0.2668,-1.4389 0.752,-1.987 0.291,-0.327 0.574,-0.637 0.777,-0.84 l 2.824,-2.873 c 0.0905,-0.0999 0.2001,-0.1804 0.3225,-0.2369 0.1223,-0.0564 0.2548,-0.0875 0.3894,-0.0915 0.1347,-0.004 0.2688,0.0193 0.3942,0.0685 0.1255,0.0491 0.2397,0.1231 0.3358,0.2175 0.0961,0.0944 0.1722,0.2072 0.22366,0.3317 0.05145,0.1245 0.0772,0.2582 0.07572,0.3929 -0.0015,0.1347 -0.03017,0.2677 -0.08434,0.3911 -0.05414,0.1233 -0.13274,0.2344 -0.23094,0.3267 l -2.829,2.88 c -0.187,0.188 -0.441,0.468 -0.7,0.759 -0.1611,0.1827 -0.25,0.4179 -0.25,0.6615 0,0.2436 0.0889,0.4788 0.25,0.6615 0.258,0.29 0.512,0.57 0.693,0.752 l 2.836,2.88599 c 0.0982,0.09225 0.1768,0.20338 0.23094,0.32673 0.05417,0.12335 0.08286,0.25638 0.08434,0.39109 0.0015,0.13471 -0.02427,0.26834 -0.07572,0.39285 -0.05146,0.12451 -0.12756,0.23735 -0.22366,0.33173 -0.0961,0.09438 -0.2103,0.16837 -0.3358,0.21751 -0.1254,0.04914 -0.2595,0.07244 -0.3942,0.06848 -0.1346,-0.004 -0.2671,-0.03509 -0.3894,-0.09152 -0.1224,-0.05643 -0.232,-0.137 -0.3225,-0.23687 l -2.829,-2.879 c -0.2,-0.2 -0.48,-0.507 -0.769,-0.83299 -0.4867,-0.5478 -0.7554,-1.2552 -0.755,-1.988 z"
     fill="#21216f"
     clip-path="url(#clipPath301)" />
  <defs
     id="defs8">
    <clipPath
       clipPathUnits="userSpaceOnUse"
       id="clipPath301">
      <g
         id="g305">
        <rect
           width="24"
           height="24"
           fill="#ffffff"
           id="rect303"
           x="-23.999977"
           y="-23.999977"
           transform="scale(-1)" />
      </g>
    </clipPath>
    <clipPath
       clipPathUnits="userSpaceOnUse"
       id="clipPath307">
      <g
         id="g311">
        <rect
           width="24"
           height="24"
           fill="#ffffff"
           id="rect309"
           x="-23.999977"
           y="-23.999977"
           transform="scale(-1)" />
      </g>
    </clipPath>
  </defs>
</svg>
