<?xml version="1.0" encoding="UTF-8" standalone="no"?>
<svg
   width="24"
   height="24"
   viewBox="0 0 24 24"
   fill="none"
   version="1.1"
   id="svg10"
   sodipodi:docname="arrow_down.svg"
   inkscape:version="1.2.2 (732a01da63, 2022-12-09)"
   xmlns:inkscape="http://www.inkscape.org/namespaces/inkscape"
   xmlns:sodipodi="http://sodipodi.sourceforge.net/DTD/sodipodi-0.dtd"
   xmlns="http://www.w3.org/2000/svg"
   xmlns:svg="http://www.w3.org/2000/svg">
  <sodipodi:namedview
     id="namedview12"
     pagecolor="#ffffff"
     bordercolor="#666666"
     borderopacity="1.0"
     inkscape:pageshadow="2"
     inkscape:pageopacity="0.0"
     inkscape:pagecheckerboard="0"
     showgrid="false"
     inkscape:zoom="2.8173786"
     inkscape:cx="130.97281"
     inkscape:cy="67.793516"
     inkscape:window-width="1920"
     inkscape:window-height="1017"
     inkscape:window-x="1912"
     inkscape:window-y="-8"
     inkscape:window-maximized="1"
     inkscape:current-layer="svg10"
     inkscape:showpageshadow="0"
     inkscape:deskcolor="#d1d1d1" />
  <path
     id="path300"
     clip-path="url(#clipPath345)"
     d="m 11.999978,16.0001 c -0.732,7e-4 -1.4389,-0.2668 -1.987,-0.752 -0.327,-0.291 -0.637,-0.574 -0.84,-0.777 l -2.873,-2.824 c -0.0999,-0.0905 -0.1804,-0.2001 -0.2369,-0.3225 -0.0564,-0.1223 -0.0875,-0.2548 -0.0915,-0.3894 -0.004,-0.1347 0.0193,-0.2688 0.0685,-0.3942 0.0491,-0.1255 0.1231,-0.2397 0.2175,-0.3358 0.0944,-0.0961 0.2072,-0.1722 0.3317,-0.22366 0.1245,-0.05145 0.2582,-0.0772 0.3929,-0.07572 0.1347,0.00148 0.2677,0.03017 0.3911,0.08434 0.1233,0.05414 0.2344,0.13274 0.3267,0.23094 l 2.88,2.829 c 0.188,0.187 0.468,0.441 0.759,0.7 0.1827,0.1611 0.4179,0.25 0.6615,0.25 0.2436,0 0.4788,-0.0889 0.6615,-0.25 0.29,-0.258 0.57,-0.512 0.752,-0.693 l 2.88599,-2.836 c 0.09225,-0.0982 0.20338,-0.1768 0.32673,-0.23094 0.12335,-0.05417 0.25638,-0.08286 0.39109,-0.08434 0.13471,-0.00148 0.26834,0.02427 0.39285,0.07572 0.12451,0.05146 0.23735,0.12756 0.33173,0.22366 0.09438,0.0961 0.16837,0.2103 0.21751,0.3358 0.04914,0.1254 0.07244,0.2595 0.06848,0.3942 -0.004,0.1346 -0.03509,0.2671 -0.09152,0.3894 -0.05643,0.1224 -0.137,0.232 -0.23687,0.3225 l -2.879,2.829 c -0.2,0.2 -0.507,0.48 -0.83299,0.769 -0.5478,0.4867 -1.2552,0.7554 -1.988,0.755 z"
     style="fill:#000000" />
  <defs
     id="defs8">
    <clipPath
       clipPathUnits="userSpaceOnUse"
       id="clipPath345">
      <g
         id="g349">
        <rect
           width="24"
           height="24"
           fill="#ffffff"
           id="rect347"
           x="0"
           y="-23.999977"
           transform="rotate(90)" />
      </g>
    </clipPath>
  </defs>
</svg>
