<?xml version="1.0" encoding="UTF-8" standalone="no"?>
<svg
   width="24"
   height="24"
   viewBox="0 0 24 24"
   fill="none"
   version="1.1"
   id="svg10"
   sodipodi:docname="arrow_left_circle (copy).svg"
   inkscape:version="1.1.2 (0a00cf5339, 2022-02-04)"
   xmlns:inkscape="http://www.inkscape.org/namespaces/inkscape"
   xmlns:sodipodi="http://sodipodi.sourceforge.net/DTD/sodipodi-0.dtd"
   xmlns="http://www.w3.org/2000/svg"
   xmlns:svg="http://www.w3.org/2000/svg">
  <sodipodi:namedview
     id="namedview12"
     pagecolor="#ffffff"
     bordercolor="#666666"
     borderopacity="1.0"
     inkscape:pageshadow="2"
     inkscape:pageopacity="0.0"
     inkscape:pagecheckerboard="0"
     showgrid="false"
     inkscape:zoom="31.875"
     inkscape:cx="12.015686"
     inkscape:cy="12"
     inkscape:window-width="1920"
     inkscape:window-height="1009"
     inkscape:window-x="0"
     inkscape:window-y="0"
     inkscape:window-maximized="1"
     inkscape:current-layer="svg10" />
  <g
     id="sistema/sistema/seta-direita"
     clip-path="url(#clip0_5_1028)"
     transform="rotate(90,11.999989,11.999989)">
    <path
       id="Vector"
       d="m 0,12 c 0,2.3734 0.703788,4.6935 2.02236,6.6668 1.31858,1.9734 3.19273,3.5115 5.38544,4.4198 2.19271,0.9082 4.6055,1.1458 6.9333,0.6828 2.3278,-0.463 4.466,-1.6059 6.1442,-3.2841 1.6782,-1.6782 2.8211,-3.8164 3.2841,-6.1442 0.463,-2.3278 0.2254,-4.74059 -0.6828,-6.9333 C 22.1783,5.21509 20.6402,3.34094 18.6668,2.02236 16.6935,0.703788 14.3734,0 12,0 8.81846,0.00344108 5.76821,1.26883 3.51852,3.51852 1.26883,5.76821 0.00344108,8.81846 0,12 Z m 22,0 c 0,1.9778 -0.5865,3.9112 -1.6853,5.5557 -1.0988,1.6445 -2.6606,2.9262 -4.4879,3.6831 -1.8272,0.7569 -3.8379,0.9549 -5.7777,0.5691 C 8.10929,21.422 6.32746,20.4696 4.92893,19.0711 3.53041,17.6725 2.578,15.8907 2.19215,13.9509 1.8063,12.0111 2.00433,10.0004 2.7612,8.17317 3.51808,6.3459 4.79981,4.78412 6.4443,3.6853 8.08879,2.58649 10.0222,2 12,2 14.6513,2.00291 17.1931,3.05742 19.0679,4.93215 20.9426,6.80688 21.9971,9.34873 22,12 Z"
       fill="#21216f" />
    <path
       id="Vector_2"
       d="m 16.0001,12 c 7e-4,0.732 -0.2668,1.4389 -0.752,1.987 -0.291,0.327 -0.574,0.637 -0.777,0.84 l -2.824,2.873 c -0.0905,0.0999 -0.2001,0.1804 -0.3225,0.2369 -0.1223,0.0564 -0.2548,0.0875 -0.3894,0.0915 -0.1347,0.004 -0.2688,-0.0193 -0.3942,-0.0685 C 10.4155,17.9108 10.3013,17.8368 10.2052,17.7424 10.1091,17.648 10.033,17.5352 9.98154,17.4107 9.93009,17.2862 9.90434,17.1525 9.90582,17.0178 9.9073,16.8831 9.93599,16.7501 9.99016,16.6267 10.0443,16.5034 10.1229,16.3923 10.2211,16.3 l 2.829,-2.88 c 0.187,-0.188 0.441,-0.468 0.7,-0.759 0.1611,-0.1827 0.25,-0.4179 0.25,-0.6615 0,-0.2436 -0.0889,-0.4788 -0.25,-0.6615 -0.258,-0.29 -0.512,-0.57 -0.693,-0.752 L 10.2211,7.70001 C 10.1229,7.60776 10.0443,7.49663 9.99016,7.37328 9.93599,7.24993 9.9073,7.1169 9.90582,6.98219 9.90434,6.84748 9.93009,6.71385 9.98154,6.58934 10.033,6.46483 10.1091,6.35199 10.2052,6.25761 10.3013,6.16323 10.4155,6.08924 10.541,6.0401 c 0.1254,-0.04914 0.2595,-0.07244 0.3942,-0.06848 0.1346,0.00396 0.2671,0.03509 0.3894,0.09152 0.1224,0.05643 0.232,0.137 0.3225,0.23687 l 2.829,2.879 c 0.2,0.2 0.48,0.507 0.769,0.83299 0.4867,0.5478 0.7554,1.2552 0.755,1.988 z"
       fill="#21216f" />
  </g>
  <defs
     id="defs8">
    <clipPath
       id="clip0_5_1028">
      <rect
         width="24"
         height="24"
         fill="white"
         id="rect5" />
    </clipPath>
  </defs>
</svg>
