<?xml version="1.0" encoding="UTF-8" standalone="no"?>
<svg
   width="24"
   height="24"
   viewBox="0 0 24 24"
   fill="none"
   version="1.1"
   id="svg19"
   sodipodi:docname="arrow_right.svg"
   inkscape:version="1.2.2 (732a01da63, 2022-12-09)"
   xmlns:inkscape="http://www.inkscape.org/namespaces/inkscape"
   xmlns:sodipodi="http://sodipodi.sourceforge.net/DTD/sodipodi-0.dtd"
   xmlns="http://www.w3.org/2000/svg"
   xmlns:svg="http://www.w3.org/2000/svg">
  <defs
     id="defs23" />
  <sodipodi:namedview
     id="namedview21"
     pagecolor="#505050"
     bordercolor="#ffffff"
     borderopacity="1"
     inkscape:showpageshadow="0"
     inkscape:pageopacity="0"
     inkscape:pagecheckerboard="1"
     inkscape:deskcolor="#505050"
     showgrid="false"
     inkscape:zoom="33.916667"
     inkscape:cx="0.38329238"
     inkscape:cy="12.029484"
     inkscape:window-width="1920"
     inkscape:window-height="1017"
     inkscape:window-x="1912"
     inkscape:window-y="-8"
     inkscape:window-maximized="1"
     inkscape:current-layer="sistema/sistema/seta-direita-only" />
  <g
     id="sistema/sistema/seta-direita-only">
    <path
       id="Vector"
       d="m 18.065199,11.999968 c 0.0014,1.457 -0.531049,2.86404 -1.496809,3.954999 -0.579217,0.650873 -1.142511,1.267908 -1.54657,1.671967 L 9.4008259,23.34546 c -0.180135,0.198845 -0.398287,0.359075 -0.641916,0.471535 -0.243431,0.112261 -0.507164,0.174163 -0.775075,0.182125 -0.268112,0.008 -0.53503,-0.03842 -0.78463,-0.136345 -0.2498004,-0.09773 -0.4771083,-0.245023 -0.6683893,-0.43292 -0.191281,-0.187897 -0.3427533,-0.412419 -0.4451812,-0.660228 -0.102408,-0.24781 -0.1536618,-0.513931 -0.1507159,-0.782043 0.00295,-0.268112 0.060052,-0.53284 0.1678735,-0.77846 0.1077622,-0.245421 0.2642106,-0.466558 0.4596715,-0.650276 l 5.6309455,-5.732459 c 0.372212,-0.374202 0.877783,-0.931525 1.393306,-1.510742 0.32066,-0.363653 0.497609,-0.831804 0.497609,-1.316674 0,-0.484871 -0.176949,-0.953022 -0.497609,-1.316674 C 13.073182,10.105072 12.567611,9.5477494 12.207342,9.1854904 L 6.5624635,3.441108 C 6.3670026,3.2574901 6.2105542,3.0362929 6.102792,2.7907724 5.99497,2.545252 5.9378643,2.2804641 5.9349185,2.0123323 5.9319726,1.7442005 5.9832264,1.4782184 6.0856344,1.2303891 6.1880623,0.98255974 6.3395346,0.75795884 6.5308156,0.57010134 c 0.191281,-0.1878575 0.4185889,-0.3351299 0.6683893,-0.43294 0.2496,-0.09781 0.516518,-0.1441873 0.78463,-0.1363051032 0.267911,0.007880003 0.531644,0.0698440032 0.775075,0.1821648032 0.243629,0.1123203 0.461781,0.2726899 0.641916,0.4714748 L 15.031773,6.3849644 c 0.398087,0.398088 0.955409,1.009152 1.530646,1.658015 0.968746,1.090361 1.503576,2.4983966 1.50278,3.9569886 z"
       fill="#21216f"
       style="stroke-width:1.99044" />
  </g>
</svg>
