<svg width="24" height="24" viewBox="0 0 24 24" fill="none" xmlns="http://www.w3.org/2000/svg">
<g id="sistema/sistema/seta-direita-only">
<path id="Vector" d="M16.0001 12C16.0008 12.732 15.7333 13.4389 15.2481 13.987C14.9571 14.314 14.6741 14.624 14.4711 14.827L11.6471 17.7C11.5566 17.7999 11.447 17.8804 11.3246 17.9369C11.2023 17.9933 11.0698 18.0244 10.9352 18.0284C10.8005 18.0324 10.6664 18.0091 10.541 17.9599C10.4155 17.9108 10.3013 17.8368 10.2052 17.7424C10.1091 17.648 10.033 17.5352 9.98154 17.4107C9.93009 17.2862 9.90434 17.1525 9.90582 17.0178C9.9073 16.8831 9.93599 16.7501 9.99016 16.6267C10.0443 16.5034 10.1229 16.3923 10.2211 16.3L13.0501 13.42C13.2371 13.232 13.4911 12.952 13.7501 12.661C13.9112 12.4783 14.0001 12.2431 14.0001 11.9995C14.0001 11.7559 13.9112 11.5207 13.7501 11.338C13.4921 11.048 13.2381 10.768 13.0571 10.586L10.2211 7.70001C10.1229 7.60776 10.0443 7.49663 9.99016 7.37328C9.93599 7.24993 9.9073 7.1169 9.90582 6.98219C9.90434 6.84748 9.93009 6.71385 9.98154 6.58934C10.033 6.46483 10.1091 6.35199 10.2052 6.25761C10.3013 6.16323 10.4155 6.08924 10.541 6.0401C10.6664 5.99096 10.8005 5.96766 10.9352 5.97162C11.0698 5.97558 11.2023 6.00671 11.3246 6.06314C11.447 6.11957 11.5566 6.20014 11.6471 6.30001L14.4761 9.17901C14.6761 9.37901 14.9561 9.68601 15.2451 10.012C15.7318 10.5598 16.0005 11.2672 16.0001 12Z" fill="#21216F"/>
</g>
</svg>
