<svg width="24" height="24" viewBox="0 0 24 24" fill="none" xmlns="http://www.w3.org/2000/svg">
<g id="Camada_x0020_1">
<g id="Vector">
<path d="M18.2144 9.09807C18.6012 9.49194 18.5948 10.1253 18.2001 10.512L13.7744 14.8574C12.9907 15.6252 11.9833 16.008 10.9743 16.008C9.97573 16.008 8.97792 15.6324 8.19813 14.8797L6.29879 13.0121C5.90491 12.6254 5.90014 11.992 6.28685 11.5982C6.67277 11.2035 7.30774 11.1979 7.70082 11.5862L9.59379 13.4474C10.3696 14.1969 11.595 14.193 12.3748 13.4291L16.8005 9.08534C17.1928 8.69704 17.8238 8.7042 18.2144 9.09807ZM3.20907 18.7953H5.20867V20.7877H3.20907V18.7953Z" fill="#21216F"/>
<path d="M12.0939 21.9845C10.7365 21.9845 9.48197 21.7399 8.35586 21.3029C7.849 21.1062 7.25763 21.2805 6.99192 21.7548C6.71305 22.2526 6.89924 22.8865 7.42499 23.1083C8.76448 23.6733 10.1934 24 11.5783 24C13.7322 24 15.3109 23.7406 17.079 22.8916C19.7382 21.6145 21.5779 19.7454 22.8757 17.11C23.5114 15.8202 24 13.885 24 12.4217C24 10.2686 23.7406 8.68987 22.8916 6.92103C22.5813 6.27571 22.22 5.64551 21.8174 5.08932C21.2668 4.33022 20.4941 3.41755 19.7549 2.83907C18.7523 2.05689 18.45 1.78397 17.11 1.12433C16 0.577681 14.0736 0 12.4217 0C10.2654 0 8.69226 0.258604 6.92103 1.10841C4.87687 2.09031 3.49155 3.29899 2.19614 5.0551C0.943704 6.75234 0 9.39009 0 11.5783C0 13.3464 0.176249 14.7303 0.709353 16.1477C0.906003 16.6706 1.51715 16.8798 2.0193 16.635C2.52407 16.389 2.72519 15.7781 2.54173 15.2474C1.73942 12.9265 1.86192 9.95936 2.92103 7.84325C3.47563 6.73642 3.55998 6.58444 4.33181 5.59777C4.80525 4.99304 5.63835 4.25542 6.26218 3.82495C7.99602 2.62662 9.86911 2.01552 12.1878 2.01552C13.897 2.01552 15.7024 2.60115 16.9668 3.33002C17.9232 3.88144 18.9544 4.71295 19.6483 5.57151C21.1577 7.44062 21.9845 9.4999 21.9845 12.0939C21.9845 14.1874 21.1498 16.584 19.9332 18.0585L19.0682 19.0682L18.0832 19.9117C16.5872 21.1482 14.2001 21.9845 12.0939 21.9845Z" fill="#21216F"/>
</g>
</g>
</svg>
