<svg width="24" height="24" viewBox="0 0 24 24" fill="none" xmlns="http://www.w3.org/2000/svg">
<g id="Camada_x0020_1">
<g id="Vector">
<path d="M3.20907 18.7953H5.20867V20.7877H3.20907V18.7953ZM15.7072 9.70758L13.414 12L15.7072 14.2932C16.0979 14.6847 16.0979 15.3165 15.7072 15.7072C15.5122 15.9021 15.256 16 14.9998 16C14.7444 16 14.4882 15.9021 14.2932 15.7072L12 13.414L9.70678 15.7072C9.51184 15.9021 9.25562 16 9.0002 16C8.74398 16 8.48777 15.9021 8.29282 15.7072C7.90213 15.3165 7.90213 14.6839 8.29282 14.2932L10.586 12L8.29282 9.70758C7.90213 9.31609 7.90213 8.68431 8.29282 8.29362C8.68431 7.90213 9.31609 7.90213 9.70678 8.29362L12 10.586L14.2932 8.29362C14.6839 7.90213 15.3165 7.90213 15.7072 8.29362C16.0979 8.68431 16.0979 9.31609 15.7072 9.70758Z" fill="#21216F"/>
<path d="M12.0939 21.9845C10.7365 21.9845 9.48197 21.7399 8.35586 21.3029C7.849 21.1062 7.25763 21.2805 6.99192 21.7548C6.71305 22.2526 6.89924 22.8865 7.42499 23.1083C8.76448 23.6733 10.1934 24 11.5783 24C13.7322 24 15.3109 23.7406 17.079 22.8916C19.7382 21.6145 21.5779 19.7454 22.8757 17.11C23.5114 15.8202 24 13.885 24 12.4217C24 10.2686 23.7406 8.68987 22.8916 6.92103C22.5813 6.27571 22.22 5.64551 21.8174 5.08932C21.2668 4.33022 20.4941 3.41755 19.7549 2.83907C18.7523 2.05689 18.45 1.78397 17.11 1.12433C16 0.577681 14.0736 0 12.4217 0C10.2654 0 8.69226 0.258604 6.92103 1.10841C4.87687 2.09031 3.49155 3.29899 2.19614 5.0551C0.943704 6.75234 0 9.39009 0 11.5783C0 13.3004 0.167203 14.6581 0.66849 16.0372C0.881506 16.6233 1.56467 16.8566 2.12521 16.5834C2.57172 16.3658 2.75009 15.8258 2.5811 15.3587C1.73572 13.0221 1.84491 9.99335 2.92103 7.84325C3.47563 6.73642 3.55998 6.58444 4.33181 5.59777C4.80525 4.99304 5.63835 4.25542 6.26218 3.82495C7.99602 2.62662 9.86911 2.01552 12.1878 2.01552C13.897 2.01552 15.7024 2.60115 16.9668 3.33002C17.9232 3.88144 18.9544 4.71295 19.6483 5.57151C21.1577 7.44062 21.9845 9.4999 21.9845 12.0939C21.9845 14.1874 21.1498 16.584 19.9332 18.0585L19.0682 19.0682L18.0832 19.9117C16.5872 21.1482 14.2001 21.9845 12.0939 21.9845Z" fill="#21216F"/>
</g>
</g>
</svg>
