<?xml version="1.0" encoding="UTF-8" standalone="no"?>
<svg
   width="24"
   height="24"
   viewBox="0 0 24 24"
   fill="none"
   version="1.1"
   id="svg15"
   sodipodi:docname="company.svg"
   inkscape:version="1.1.2 (0a00cf5339, 2022-02-04)"
   xmlns:inkscape="http://www.inkscape.org/namespaces/inkscape"
   xmlns:sodipodi="http://sodipodi.sourceforge.net/DTD/sodipodi-0.dtd"
   xmlns="http://www.w3.org/2000/svg"
   xmlns:svg="http://www.w3.org/2000/svg">
  <sodipodi:namedview
     id="namedview17"
     pagecolor="#ffffff"
     bordercolor="#666666"
     borderopacity="1.0"
     inkscape:pageshadow="2"
     inkscape:pageopacity="0.0"
     inkscape:pagecheckerboard="0"
     showgrid="false"
     inkscape:zoom="24.375"
     inkscape:cx="11.938462"
     inkscape:cy="12"
     inkscape:window-width="1440"
     inkscape:window-height="829"
     inkscape:window-x="0"
     inkscape:window-y="0"
     inkscape:window-maximized="1"
     inkscape:current-layer="svg15" />
  <g
     id="g91">
    <g
       id="g84">
      <g
         id="g78">
        <path
           fill-rule="evenodd"
           clip-rule="evenodd"
           d="m 24,10 v 9 c -0.0016,1.3256 -0.5289,2.5964 -1.4662,3.5338 C 21.5964,23.4711 20.3256,23.9984 19,24 H 6 C 5.44772,24 5,23.5523 5,23 5,22.4477 5.44772,22 6,22 h 8 V 5 C 14,4.20435 13.6839,3.44129 13.1213,2.87868 12.5587,2.31607 11.7956,2 11,2 H 5 C 4.20435,2 3.44129,2.31607 2.87868,2.87868 2.31607,3.44129 2,4.20435 2,5 V 18 C 2,18.5523 1.55228,19 1,19 0.447715,19 0,18.5523 0,18 V 5 C 0.00158786,3.67441 0.528882,2.40356 1.46622,1.46622 2.40356,0.528882 3.67441,0.00158786 5,0 h 6 c 1.3256,0.00158786 2.5964,0.528882 3.5338,1.46622 C 15.4711,2.40356 15.9984,3.67441 16,5 h 3 c 1.3256,0.00159 2.5964,0.52888 3.5338,1.46622 C 23.4711,7.40356 23.9984,8.67441 24,10 Z M 21.1213,7.87868 C 21.6839,8.44129 22,9.20435 22,10 v 9 c 0,0.7956 -0.3161,1.5587 -0.8787,2.1213 C 20.5587,21.6839 19.7956,22 19,22 H 16 V 7 h 3 c 0.7956,0 1.5587,0.31607 2.1213,0.87868 z"
           fill="#21216f"
           id="path59" />
        <path
           fill-rule="evenodd"
           clip-rule="evenodd"
           d="M 6.70711,14.7071 C 6.89464,14.5196 7,14.2652 7,14 7,13.7348 6.89464,13.4804 6.70711,13.2929 6.51957,13.1054 6.26522,13 6,13 H 5 C 4.73478,13 4.48043,13.1054 4.29289,13.2929 4.10536,13.4804 4,13.7348 4,14 4,14.2652 4.10536,14.5196 4.29289,14.7071 4.48043,14.8946 4.73478,15 5,15 h 1 c 0.26522,0 0.51957,-0.1054 0.70711,-0.2929 z M 10,13 h 1 c 0.2652,0 0.5196,0.1054 0.7071,0.2929 C 11.8946,13.4804 12,13.7348 12,14 12,14.2652 11.8946,14.5196 11.7071,14.7071 11.5196,14.8946 11.2652,15 11,15 H 10 C 9.73478,15 9.48043,14.8946 9.29289,14.7071 9.10536,14.5196 9,14.2652 9,14 9,13.7348 9.10536,13.4804 9.29289,13.2929 9.48043,13.1054 9.73478,13 10,13 Z m -5,4 h 1 c 0.26522,0 0.51957,0.1054 0.70711,0.2929 C 6.89464,17.4804 7,17.7348 7,18 7,18.2652 6.89464,18.5196 6.70711,18.7071 6.51957,18.8946 6.26522,19 6,19 H 5 C 4.73478,19 4.48043,18.8946 4.29289,18.7071 4.10536,18.5196 4,18.2652 4,18 4,17.7348 4.10536,17.4804 4.29289,17.2929 4.48043,17.1054 4.73478,17 5,17 Z m 5,0 h 1 c 0.2652,0 0.5196,0.1054 0.7071,0.2929 C 11.8946,17.4804 12,17.7348 12,18 12,18.2652 11.8946,18.5196 11.7071,18.7071 11.5196,18.8946 11.2652,19 11,19 H 10 C 9.73478,19 9.48043,18.8946 9.29289,18.7071 9.10536,18.5196 9,18.2652 9,18 9,17.7348 9.10536,17.4804 9.29289,17.2929 9.48043,17.1054 9.73478,17 10,17 Z M 5,5 H 6 C 6.26522,5 6.51957,5.10536 6.70711,5.29289 6.89464,5.48043 7,5.73478 7,6 7,6.26522 6.89464,6.51957 6.70711,6.70711 6.51957,6.89464 6.26522,7 6,7 H 5 C 4.73478,7 4.48043,6.89464 4.29289,6.70711 4.10536,6.51957 4,6.26522 4,6 4,5.73478 4.10536,5.48043 4.29289,5.29289 4.48043,5.10536 4.73478,5 5,5 Z m 5,0 h 1 c 0.2652,0 0.5196,0.10536 0.7071,0.29289 C 11.8946,5.48043 12,5.73478 12,6 12,6.26522 11.8946,6.51957 11.7071,6.70711 11.5196,6.89464 11.2652,7 11,7 H 10 C 9.73478,7 9.48043,6.89464 9.29289,6.70711 9.10536,6.51957 9,6.26522 9,6 9,5.73478 9.10536,5.48043 9.29289,5.29289 9.48043,5.10536 9.73478,5 10,5 Z M 5,9 H 6 C 6.26522,9 6.51957,9.10536 6.70711,9.29289 6.89464,9.48043 7,9.73478 7,10 7,10.2652 6.89464,10.5196 6.70711,10.7071 6.51957,10.8946 6.26522,11 6,11 H 5 C 4.73478,11 4.48043,10.8946 4.29289,10.7071 4.10536,10.5196 4,10.2652 4,10 4,9.73478 4.10536,9.48043 4.29289,9.29289 4.48043,9.10536 4.73478,9 5,9 Z m 5,0 h 1 c 0.2652,0 0.5196,0.10536 0.7071,0.29289 C 11.8946,9.48043 12,9.73478 12,10 12,10.2652 11.8946,10.5196 11.7071,10.7071 11.5196,10.8946 11.2652,11 11,11 H 10 C 9.73478,11 9.48043,10.8946 9.29289,10.7071 9.10536,10.5196 9,10.2652 9,10 9,9.73478 9.10536,9.48043 9.29289,9.29289 9.48043,9.10536 9.73478,9 10,9 Z m 8.4444,4.1685 C 18.6089,13.0586 18.8022,13 19,13 c 0.2652,0 0.5196,0.1054 0.7071,0.2929 C 19.8946,13.4804 20,13.7348 20,14 c 0,0.1978 -0.0586,0.3911 -0.1685,0.5556 -0.1099,0.1644 -0.2661,0.2926 -0.4488,0.3683 -0.1827,0.0757 -0.3838,0.0955 -0.5778,0.0569 -0.194,-0.0386 -0.3722,-0.1338 -0.512,-0.2737 -0.1399,-0.1398 -0.2351,-0.318 -0.2737,-0.512 -0.0386,-0.194 -0.0188,-0.3951 0.0569,-0.5778 0.0757,-0.1827 0.2039,-0.3389 0.3683,-0.4488 z m 0,4 C 18.6089,17.0586 18.8022,17 19,17 c 0.2652,0 0.5196,0.1054 0.7071,0.2929 C 19.8946,17.4804 20,17.7348 20,18 c 0,0.1978 -0.0586,0.3911 -0.1685,0.5556 -0.1099,0.1644 -0.2661,0.2926 -0.4488,0.3683 -0.1827,0.0757 -0.3838,0.0955 -0.5778,0.0569 -0.194,-0.0386 -0.3722,-0.1338 -0.512,-0.2737 -0.1399,-0.1398 -0.2351,-0.318 -0.2737,-0.512 -0.0386,-0.194 -0.0188,-0.3951 0.0569,-0.5778 0.0757,-0.1827 0.2039,-0.3389 0.3683,-0.4488 z m 0,-7.99997 C 18.6089,9.05865 18.8022,9 19,9 19.2652,9 19.5196,9.10536 19.7071,9.29289 19.8946,9.48043 20,9.73478 20,10 c 0,0.1978 -0.0586,0.3911 -0.1685,0.5556 -0.1099,0.1644 -0.2661,0.2926 -0.4488,0.3683 -0.1827,0.0757 -0.3838,0.0955 -0.5778,0.0569 -0.194,-0.0386 -0.3722,-0.1338 -0.512,-0.2737 -0.1399,-0.1398 -0.2351,-0.318 -0.2737,-0.512 -0.0386,-0.194 -0.0188,-0.39506 0.0569,-0.57778 0.0757,-0.18273 0.2039,-0.33891 0.3683,-0.44879 z"
           fill="#21216f"
           id="path62" />
        <rect
           y="22"
           width="2"
           height="2"
           fill="#21216f"
           id="rect65"
           x="0" />
      </g>
    </g>
  </g>
  <defs
     id="defs13">
    <clipPath
       id="clip0_93_1031">
      <rect
         width="24"
         height="24"
         fill="white"
         id="rect10" />
    </clipPath>
  </defs>
</svg>
