<?xml version="1.0" encoding="UTF-8" standalone="no"?>
<svg
   width="24"
   height="24"
   viewBox="0 0 24 24"
   fill="none"
   version="1.1"
   id="svg15"
   sodipodi:docname="company.svg"
   inkscape:version="1.2.2 (732a01da63, 2022-12-09)"
   xmlns:inkscape="http://www.inkscape.org/namespaces/inkscape"
   xmlns:sodipodi="http://sodipodi.sourceforge.net/DTD/sodipodi-0.dtd"
   xmlns="http://www.w3.org/2000/svg"
   xmlns:svg="http://www.w3.org/2000/svg">
  <sodipodi:namedview
     id="namedview17"
     pagecolor="#ffffff"
     bordercolor="#666666"
     borderopacity="1.0"
     inkscape:pageshadow="2"
     inkscape:pageopacity="0.0"
     inkscape:pagecheckerboard="0"
     showgrid="false"
     inkscape:zoom="3.046875"
     inkscape:cx="122.09231"
     inkscape:cy="97.148718"
     inkscape:window-width="1920"
     inkscape:window-height="1017"
     inkscape:window-x="1912"
     inkscape:window-y="-8"
     inkscape:window-maximized="1"
     inkscape:current-layer="svg15"
     inkscape:showpageshadow="0"
     inkscape:deskcolor="#d1d1d1" />
  <path
     id="path504"
     style="fill:#000000"
     d="M 5 0 C 3.6744113 0.0015878584 2.4041359 0.52945981 1.4667969 1.4667969 C 0.52945981 2.4041359 0.0015878584 3.6744113 0 5 L 0 18 C 0 18.552299 0.44771555 19 1 19 C 1.5522794 19 2 18.552299 2 18 L 2 5 C 2 4.2043508 2.3162968 3.4415157 2.8789062 2.8789062 C 3.4415157 2.3162968 4.2043508 2 5 2 L 11 2 C 11.795599 2 12.558494 2.3162968 13.121094 2.8789062 C 13.683693 3.4415157 14 4.2043508 14 5 L 14 22 L 6 22 C 5.4477206 22 5 22.447701 5 23 C 5 23.552299 5.4477206 24 6 24 L 19 24 C 20.325599 23.9984 21.595804 23.470502 22.533203 22.533203 C 23.470502 21.595804 23.9984 20.325599 24 19 L 24 10 C 23.9984 8.6744113 23.470502 7.4041359 22.533203 6.4667969 C 21.595804 5.5294578 20.325599 5.00159 19 5 L 16 5 C 15.9984 3.6744113 15.470502 2.4041359 14.533203 1.4667969 C 13.595804 0.52945981 12.325599 0.0015878584 11 0 L 5 0 z M 16 7 L 19 7 C 19.795599 7 20.558494 7.3162968 21.121094 7.8789062 C 21.683693 8.4415157 22 9.2043508 22 10 L 22 19 C 22 19.795599 21.683693 20.558494 21.121094 21.121094 C 20.558494 21.683693 19.795599 22 19 22 L 16 22 L 16 7 z " />
  <rect
     y="22"
     width="2"
     height="2"
     fill="#21216f"
     id="rect451"
     x="0"
     style="fill:#000000" />
  <defs
     id="defs13">
    <clipPath
       id="clip0_93_1031">
      <rect
         width="24"
         height="24"
         fill="white"
         id="rect10" />
    </clipPath>
  </defs>
  <path
     d="M 18.4444,9.16853 C 18.6089,9.05865 18.8022,9 19,9 19.2652,9 19.5196,9.10536 19.7071,9.29289 19.8946,9.48043 20,9.73478 20,10 c 0,0.1978 -0.0586,0.3911 -0.1685,0.5556 -0.1099,0.1644 -0.2661,0.2926 -0.4488,0.3683 -0.1827,0.0757 -0.3838,0.0955 -0.5778,0.0569 -0.194,-0.0386 -0.3722,-0.1338 -0.512,-0.2737 -0.1399,-0.1398 -0.2351,-0.318 -0.2737,-0.512 -0.0386,-0.194 -0.0188,-0.39506 0.0569,-0.57778 0.0757,-0.18273 0.2039,-0.33891 0.3683,-0.44879 z"
     id="path500"
     style="fill:#000000" />
  <path
     d="M 18.4444,17.1685 C 18.6089,17.0586 18.8022,17 19,17 c 0.2652,0 0.5196,0.1054 0.7071,0.2929 C 19.8946,17.4804 20,17.7348 20,18 c 0,0.1978 -0.0586,0.3911 -0.1685,0.5556 -0.1099,0.1644 -0.2661,0.2926 -0.4488,0.3683 -0.1827,0.0757 -0.3838,0.0955 -0.5778,0.0569 -0.194,-0.0386 -0.3722,-0.1338 -0.512,-0.2737 -0.1399,-0.1398 -0.2351,-0.318 -0.2737,-0.512 -0.0386,-0.194 -0.0188,-0.3951 0.0569,-0.5778 0.0757,-0.1827 0.2039,-0.3389 0.3683,-0.4488 z"
     id="path498"
     style="fill:#000000" />
  <path
     d="M 18.4444,13.1685 C 18.6089,13.0586 18.8022,13 19,13 c 0.2652,0 0.5196,0.1054 0.7071,0.2929 C 19.8946,13.4804 20,13.7348 20,14 c 0,0.1978 -0.0586,0.3911 -0.1685,0.5556 -0.1099,0.1644 -0.2661,0.2926 -0.4488,0.3683 -0.1827,0.0757 -0.3838,0.0955 -0.5778,0.0569 -0.194,-0.0386 -0.3722,-0.1338 -0.512,-0.2737 -0.1399,-0.1398 -0.2351,-0.318 -0.2737,-0.512 -0.0386,-0.194 -0.0188,-0.3951 0.0569,-0.5778 0.0757,-0.1827 0.2039,-0.3389 0.3683,-0.4488 z"
     id="path496"
     style="fill:#000000" />
  <path
     d="m 10,9 h 1 c 0.2652,0 0.5196,0.10536 0.7071,0.29289 C 11.8946,9.48043 12,9.73478 12,10 12,10.2652 11.8946,10.5196 11.7071,10.7071 11.5196,10.8946 11.2652,11 11,11 H 10 C 9.73478,11 9.48043,10.8946 9.29289,10.7071 9.10536,10.5196 9,10.2652 9,10 9,9.73478 9.10536,9.48043 9.29289,9.29289 9.48043,9.10536 9.73478,9 10,9 Z"
     id="path494"
     style="fill:#000000" />
  <path
     d="M 5,9 H 6 C 6.26522,9 6.51957,9.10536 6.70711,9.29289 6.89464,9.48043 7,9.73478 7,10 7,10.2652 6.89464,10.5196 6.70711,10.7071 6.51957,10.8946 6.26522,11 6,11 H 5 C 4.73478,11 4.48043,10.8946 4.29289,10.7071 4.10536,10.5196 4,10.2652 4,10 4,9.73478 4.10536,9.48043 4.29289,9.29289 4.48043,9.10536 4.73478,9 5,9 Z"
     id="path492"
     style="fill:#000000" />
  <path
     d="m 10,5 h 1 c 0.2652,0 0.5196,0.10536 0.7071,0.29289 C 11.8946,5.48043 12,5.73478 12,6 12,6.26522 11.8946,6.51957 11.7071,6.70711 11.5196,6.89464 11.2652,7 11,7 H 10 C 9.73478,7 9.48043,6.89464 9.29289,6.70711 9.10536,6.51957 9,6.26522 9,6 9,5.73478 9.10536,5.48043 9.29289,5.29289 9.48043,5.10536 9.73478,5 10,5 Z"
     id="path490"
     style="fill:#000000" />
  <path
     d="M 5,5 H 6 C 6.26522,5 6.51957,5.10536 6.70711,5.29289 6.89464,5.48043 7,5.73478 7,6 7,6.26522 6.89464,6.51957 6.70711,6.70711 6.51957,6.89464 6.26522,7 6,7 H 5 C 4.73478,7 4.48043,6.89464 4.29289,6.70711 4.10536,6.51957 4,6.26522 4,6 4,5.73478 4.10536,5.48043 4.29289,5.29289 4.48043,5.10536 4.73478,5 5,5 Z"
     id="path488"
     style="fill:#000000" />
  <path
     d="m 10,17 h 1 c 0.2652,0 0.5196,0.1054 0.7071,0.2929 C 11.8946,17.4804 12,17.7348 12,18 12,18.2652 11.8946,18.5196 11.7071,18.7071 11.5196,18.8946 11.2652,19 11,19 H 10 C 9.73478,19 9.48043,18.8946 9.29289,18.7071 9.10536,18.5196 9,18.2652 9,18 9,17.7348 9.10536,17.4804 9.29289,17.2929 9.48043,17.1054 9.73478,17 10,17 Z"
     id="path486"
     style="fill:#000000" />
  <path
     d="m 5,17 h 1 c 0.26522,0 0.51957,0.1054 0.70711,0.2929 C 6.89464,17.4804 7,17.7348 7,18 7,18.2652 6.89464,18.5196 6.70711,18.7071 6.51957,18.8946 6.26522,19 6,19 H 5 C 4.73478,19 4.48043,18.8946 4.29289,18.7071 4.10536,18.5196 4,18.2652 4,18 4,17.7348 4.10536,17.4804 4.29289,17.2929 4.48043,17.1054 4.73478,17 5,17 Z"
     id="path484"
     style="fill:#000000" />
  <path
     d="m 10,13 h 1 c 0.2652,0 0.5196,0.1054 0.7071,0.2929 C 11.8946,13.4804 12,13.7348 12,14 12,14.2652 11.8946,14.5196 11.7071,14.7071 11.5196,14.8946 11.2652,15 11,15 H 10 C 9.73478,15 9.48043,14.8946 9.29289,14.7071 9.10536,14.5196 9,14.2652 9,14 9,13.7348 9.10536,13.4804 9.29289,13.2929 9.48043,13.1054 9.73478,13 10,13 Z"
     id="path482"
     style="fill:#000000" />
  <path
     d="M 6.70711,14.7071 C 6.89464,14.5196 7,14.2652 7,14 7,13.7348 6.89464,13.4804 6.70711,13.2929 6.51957,13.1054 6.26522,13 6,13 H 5 C 4.73478,13 4.48043,13.1054 4.29289,13.2929 4.10536,13.4804 4,13.7348 4,14 4,14.2652 4.10536,14.5196 4.29289,14.7071 4.48043,14.8946 4.73478,15 5,15 h 1 c 0.26522,0 0.51957,-0.1054 0.70711,-0.2929 z"
     id="path448"
     style="fill:#000000" />
</svg>
