<svg width="25" height="25" viewBox="0 0 25 25" fill="none" xmlns="http://www.w3.org/2000/svg">
<g clip-path="url(#clip0_734_3392)">
<path d="M21.655 3.28372L19.371 0.924719C19.0905 0.636684 18.7553 0.407559 18.3851 0.25078C18.0149 0.0940011 17.6171 0.0127252 17.215 0.0117188L12.5 0.0117188C11.3478 0.0131733 10.2313 0.411809 9.33875 1.14044C8.44618 1.86906 7.8321 2.88313 7.6 4.01172H7.5C6.17441 4.01331 4.90356 4.5406 3.96622 5.47794C3.02888 6.41528 2.50159 7.68612 2.5 9.01172V19.0117C2.50159 20.3373 3.02888 21.6082 3.96622 22.5455C4.90356 23.4828 6.17441 24.0101 7.5 24.0117H13.5C14.8256 24.0101 16.0964 23.4828 17.0338 22.5455C17.9711 21.6082 18.4984 20.3373 18.5 19.0117V18.9117C19.6286 18.6796 20.6427 18.0655 21.3713 17.173C22.0999 16.2804 22.4985 15.1639 22.5 14.0117V5.37172C22.5015 4.59214 22.1983 3.84284 21.655 3.28372ZM13.5 22.0117H7.5C6.70435 22.0117 5.94129 21.6956 5.37868 21.133C4.81607 20.5704 4.5 19.8074 4.5 19.0117V9.01172C4.5 8.21607 4.81607 7.45301 5.37868 6.8904C5.94129 6.32779 6.70435 6.01172 7.5 6.01172V14.0117C7.50159 15.3373 8.02888 16.6082 8.96622 17.5455C9.90356 18.4828 11.1744 19.0101 12.5 19.0117H16.5C16.5 19.8074 16.1839 20.5704 15.6213 21.133C15.0587 21.6956 14.2957 22.0117 13.5 22.0117ZM17.5 17.0117H12.5C11.7044 17.0117 10.9413 16.6956 10.3787 16.133C9.81607 15.5704 9.5 14.8074 9.5 14.0117V5.01172C9.5 4.21607 9.81607 3.45301 10.3787 2.8904C10.9413 2.32779 11.7044 2.01172 12.5 2.01172H16.5V4.01172C16.5 4.54215 16.7107 5.05086 17.0858 5.42593C17.4609 5.80101 17.9696 6.01172 18.5 6.01172H20.5V14.0117C20.5 14.8074 20.1839 15.5704 19.6213 16.133C19.0587 16.6956 18.2957 17.0117 17.5 17.0117Z" fill="#21216F"/>
</g>
<defs>
<clipPath id="clip0_734_3392">
<rect width="24" height="24" fill="white" transform="translate(0.5 0.0117188)"/>
</clipPath>
</defs>
</svg>
