<?xml version="1.0" encoding="UTF-8" standalone="no"?>
<svg
   width="19.999996"
   height="24"
   viewBox="0 0 19.999996 24"
   fill="none"
   version="1.1"
   id="svg555"
   sodipodi:docname="document.svg"
   inkscape:version="1.2.2 (732a01da63, 2022-12-09)"
   xmlns:inkscape="http://www.inkscape.org/namespaces/inkscape"
   xmlns:sodipodi="http://sodipodi.sourceforge.net/DTD/sodipodi-0.dtd"
   xmlns="http://www.w3.org/2000/svg"
   xmlns:svg="http://www.w3.org/2000/svg">
  <sodipodi:namedview
     id="namedview557"
     pagecolor="#505050"
     bordercolor="#ffffff"
     borderopacity="1"
     inkscape:showpageshadow="0"
     inkscape:pageopacity="0"
     inkscape:pagecheckerboard="1"
     inkscape:deskcolor="#505050"
     showgrid="false"
     inkscape:zoom="3.0825436"
     inkscape:cx="65.854705"
     inkscape:cy="34.711593"
     inkscape:window-width="1920"
     inkscape:window-height="1017"
     inkscape:window-x="1912"
     inkscape:window-y="-8"
     inkscape:window-maximized="1"
     inkscape:current-layer="svg555" />
  <path
     id="path601"
     style="fill:#000000"
     d="M 5 0 C 3.6744013 0.0015878597 2.4041259 0.52946281 1.4667969 1.4667969 C 0.52945781 2.4041359 0.0015799984 3.6744113 0 5 L 0 18 C 0 18.552299 0.44771055 19 1 19 C 1.5522794 19 2 18.552299 2 18 L 2 5 C 2 4.2043508 2.3162968 3.4415157 2.8789062 2.8789062 C 3.4415157 2.3162968 4.2043508 2 5 2 L 9.515625 2 C 9.6796248 2 9.8380002 2.031875 10 2.046875 L 10 7 C 10 7.7956492 10.316307 8.5584843 10.878906 9.1210938 C 11.441506 9.6837032 12.204401 10 13 10 L 17.953125 10 C 17.968125 10.162 18 10.319375 18 10.484375 L 18 19 C 18 19.795699 17.683793 20.558494 17.121094 21.121094 C 16.558494 21.683793 15.795699 22 15 22 L 6 22 C 5.4477106 22 5 22.447701 5 23 C 5 23.552299 5.4477106 24 6 24 L 15 24 C 16.325599 23.9984 17.595904 23.470502 18.533203 22.533203 C 19.470502 21.595904 19.9984 20.325599 20 19 L 20 10.484375 C 20.0025 9.5648259 19.822703 8.6541967 19.470703 7.8046875 C 19.118603 6.9551683 18.601518 6.1833956 17.949219 5.5351562 L 14.464844 2.0507812 C 13.816244 1.3989219 13.044912 0.88116852 12.195312 0.52929688 C 11.345613 0.17742623 10.435224 -0.0023669263 9.515625 0 L 5 0 z M 12 2.6835938 C 12.383 2.8965235 12.736082 3.1600041 13.050781 3.4648438 L 16.535156 6.9492188 C 16.840556 7.2633684 17.103406 7.6171904 17.316406 8 L 13 8 C 12.7348 8 12.480569 7.8945711 12.292969 7.7070312 C 12.105469 7.5194914 12 7.2652197 12 7 L 12 2.6835938 z M 6 13 C 5.7347803 13 5.4805086 13.105469 5.2929688 13.292969 C 5.1054289 13.480569 5 13.7348 5 14 C 5 14.2652 5.1054289 14.519531 5.2929688 14.707031 C 5.4805086 14.894631 5.7347803 15 6 15 L 14 15 C 14.2652 15 14.519531 14.894631 14.707031 14.707031 C 14.894631 14.519531 15 14.2652 15 14 C 15 13.7348 14.894631 13.480569 14.707031 13.292969 C 14.519531 13.105469 14.2652 13 14 13 L 6 13 z M 6 17 C 5.7347803 17 5.4805086 17.105469 5.2929688 17.292969 C 5.1054289 17.480569 5 17.7348 5 18 C 5 18.2652 5.1054289 18.519531 5.2929688 18.707031 C 5.4805086 18.894631 5.7347803 19 6 19 L 11 19 C 11.2652 19 11.519531 18.894631 11.707031 18.707031 C 11.894631 18.519531 12 18.2652 12 18 C 12 17.7348 11.894631 17.480569 11.707031 17.292969 C 11.519531 17.105469 11.2652 17 11 17 L 6 17 z M 0 22.007812 L 0 24 L 2 24 L 2 22.007812 L 0 22.007812 z " />
  <defs
     id="defs553">
    <clipPath
       clipPathUnits="userSpaceOnUse"
       id="clipPath575">
      <g
         id="g579">
        <rect
           width="24"
           height="24"
           fill="#ffffff"
           id="rect577"
           x="-2.00003"
           y="0" />
      </g>
    </clipPath>
    <clipPath
       clipPathUnits="userSpaceOnUse"
       id="clipPath581">
      <g
         id="g585">
        <rect
           width="24"
           height="24"
           fill="#ffffff"
           id="rect583"
           x="-2.00003"
           y="0" />
      </g>
    </clipPath>
    <clipPath
       clipPathUnits="userSpaceOnUse"
       id="clipPath587">
      <g
         id="g591">
        <rect
           width="24"
           height="24"
           fill="#ffffff"
           id="rect589"
           x="-2.00003"
           y="0" />
      </g>
    </clipPath>
  </defs>
</svg>
