<svg width="24" height="25" viewBox="0 0 24 25" fill="none" xmlns="http://www.w3.org/2000/svg">
<g clip-path="url(#clip0_65_2770)">
<path d="M22.75 9.70468C23.556 10.6187 24 11.7927 24 13.0117V18.0117C24 20.7687 21.757 23.0117 19 23.0117H5C2.243 23.0117 0 20.7687 0 18.0117V13.0117C0 10.2547 2.243 8.01168 5 8.01168H9C9.553 8.01168 10 8.45968 10 9.01168C10 9.56368 9.553 10.0117 9 10.0117H5C3.346 10.0117 2 11.3577 2 13.0117V18.0117C2 19.6657 3.346 21.0117 5 21.0117H19C20.654 21.0117 22 19.6657 22 18.0117V13.0117C22 12.2807 21.733 11.5757 21.25 11.0277C20.885 10.6137 20.924 9.98168 21.339 9.61568C21.752 9.25168 22.384 9.29068 22.75 9.70468ZM5 15.5117C5 16.3397 5.672 17.0117 6.5 17.0117C7.328 17.0117 8 16.3397 8 15.5117C8 14.6837 7.328 14.0117 6.5 14.0117C5.672 14.0117 5 14.6837 5 15.5117ZM11.5 17.0117C12.328 17.0117 13 16.3397 13 15.5117C13 14.6837 12.328 14.0117 11.5 14.0117C10.672 14.0117 10 14.6837 10 15.5117C10 16.3397 10.672 17.0117 11.5 17.0117ZM12 11.0117V9.42568C12 8.35768 12.416 7.35268 13.172 6.59768L18.879 0.890684C20.049 -0.279316 21.951 -0.279316 23.121 0.890684C23.687 1.45668 24 2.21068 24 3.01168C24 3.81268 23.687 4.56668 23.121 5.13368L17.414 10.8407C16.659 11.5957 15.654 12.0127 14.586 12.0127H13C12.447 12.0127 12 11.5647 12 11.0127V11.0117ZM14 10.0117H14.586C15.12 10.0117 15.622 9.80368 16 9.42568L21.707 3.71868C21.896 3.52968 22 3.27868 22 3.01168C22 2.74468 21.896 2.49368 21.707 2.30468C21.316 1.91368 20.684 1.91468 20.293 2.30468L14.586 8.01168C14.214 8.38468 14 8.89968 14 9.42568V10.0117Z" fill="#21216F"/>
</g>
<defs>
<clipPath id="clip0_65_2770">
<rect width="24" height="24" fill="white" transform="translate(0 0.0117188)"/>
</clipPath>
</defs>
</svg>
