<?xml version="1.0" encoding="UTF-8" standalone="no"?>
<svg
   width="33.998009"
   height="25.999981"
   viewBox="0 0 33.998009 25.999981"
   fill="none"
   version="1.1"
   id="svg70"
   sodipodi:docname="erase.svg"
   inkscape:version="1.1.2 (0a00cf5339, 2022-02-04)"
   xmlns:inkscape="http://www.inkscape.org/namespaces/inkscape"
   xmlns:sodipodi="http://sodipodi.sourceforge.net/DTD/sodipodi-0.dtd"
   xmlns="http://www.w3.org/2000/svg"
   xmlns:svg="http://www.w3.org/2000/svg">
  <defs
     id="defs74" />
  <sodipodi:namedview
     id="namedview72"
     pagecolor="#ffffff"
     bordercolor="#666666"
     borderopacity="1.0"
     inkscape:pageshadow="2"
     inkscape:pageopacity="0.0"
     inkscape:pagecheckerboard="0"
     showgrid="false"
     inkscape:zoom="14.465385"
     inkscape:cx="38.920499"
     inkscape:cy="11.99415"
     inkscape:window-width="1817"
     inkscape:window-height="1043"
     inkscape:window-x="26"
     inkscape:window-y="23"
     inkscape:window-maximized="0"
     inkscape:current-layer="g369"
     showguides="true"
     inkscape:guide-bbox="true"
     fit-margin-top="0"
     fit-margin-left="0"
     fit-margin-right="0"
     fit-margin-bottom="0">
    <sodipodi:guide
       position="-96.731718,210.72853"
       orientation="0.70710678,-0.70710678"
       id="guide7" />
  </sodipodi:namedview>
  <g
     id="g369"
     transform="translate(-0.50199289,-0.01172)">
    <path
       style="color:#000000;fill:#21216f;stroke-linecap:round;-inkscape-stroke:none"
       d="m 14.5,0.01171875 c -3.461474,0 -6.7239172,1.63123125 -8.8007813,4.40039065 L 1.5,10.011719 c -1.33068335,1.774211 -1.33068335,4.225789 0,6 l 4.1992187,5.599609 C 7.7760849,24.380534 11.038535,26.011719 14.5,26.011719 h 15 c 2.749528,0 5,-2.250366 5,-5 V 5.0117187 c 0,-2.7495888 -2.250453,-4.99999995 -5,-4.99999995 z m 0,2.00000005 h 15 c 1.668649,0 3,1.3313133 3,2.9999999 V 21.011719 c 0,1.668761 -1.331333,3 -3,3 h -15 c -2.833728,0 -5.4990087,-1.332621 -7.1992188,-3.59961 L 3.0996094,14.8125 c -0.8026545,-1.070186 -0.8026545,-2.531377 0,-3.601562 L 7.3007812,5.6113281 C 9.0009934,3.3443726 11.66628,2.0117187 14.5,2.0117188 Z M 27.384766,5.0058594 A 1,1 0 0 0 26.716797,5.3789062 L 21.71875,11.681641 16.257812,5.3476562 A 1,1 0 0 0 14.847656,5.2421875 1,1 0 0 0 14.742188,6.6523437 l 5.710937,6.6250003 -5.236328,6.601562 a 1,1 0 0 0 0.162109,1.404297 1,1 0 0 0 1.404297,-0.162109 l 4.998047,-6.302735 5.460937,6.333985 a 1,1 0 0 0 1.410157,0.105468 1,1 0 0 0 0.105468,-1.410156 l -5.710937,-6.625 5.236328,-6.6015623 A 1,1 0 0 0 28.121094,5.2167969 1,1 0 0 0 27.384766,5.0058594 Z"
       id="path68" />
  </g>
</svg>
