<svg width="24" height="25" viewBox="0 0 24 25" fill="none" xmlns="http://www.w3.org/2000/svg">
<path fill-rule="evenodd" clip-rule="evenodd" d="M1.00776 20.0117C1.56433 20.0117 2.01552 19.5605 2.01552 19.004V9.62143C2.01552 9.00794 2.29799 8.39127 2.55739 8.00695C2.96638 7.40141 4.37239 6.55001 5.02487 6.11476C5.25085 5.96437 5.45455 5.82831 5.67177 5.68349C7.08812 4.73899 8.84981 3.48019 10.228 2.59855C12.2872 1.28246 13.5301 2.45373 15.0563 3.47144L18.9473 6.09646C19.478 6.44975 20.713 7.23511 21.1132 7.63296L21.1585 7.6815C21.2636 7.7937 21.3288 7.86849 21.4164 7.98626C21.6901 8.35387 21.9845 8.99441 21.9845 9.62143V19.0433C21.9845 20.6403 20.6286 21.9962 19.0316 21.9962H5.00776C4.45119 21.9962 4 22.4474 4 23.004C4 23.5605 4.45119 24.0117 5.00776 24.0117H19.2186C21.6901 24.0117 24 21.6954 24 19.2303V9.43364C24 8.6459 23.6507 7.78813 23.3587 7.26217C23.1995 6.97571 22.6831 6.26992 22.4333 6.07816C22.2861 5.96517 22.2136 5.82592 22.0314 5.77738C22.0314 4.80822 22.0314 3.83985 22.0314 2.87148C22.0314 2.37734 22.0792 1.88242 21.9001 1.54902C21.4132 0.637937 19.9968 0.868691 19.9674 2.11954C19.9499 2.84363 19.969 3.59636 19.969 4.32443C19.517 4.08492 19.0507 3.71253 18.6195 3.42369L17.2691 2.52455C16.5697 2.05827 15.2123 1.0899 14.5813 0.711938C13.8707 0.286236 13.0702 0.0530953 12.2586 0.0117188H11.7406C11.034 0.0475254 10.3322 0.228946 9.6861 0.557571C9.38055 0.713529 9.1665 0.886197 8.88801 1.0716L4.91267 3.75232C4.42968 4.07458 2.037 5.66678 1.77044 5.90708L1.41953 6.21263C1.34474 6.29539 1.35827 6.30573 1.2771 6.39803C0.564949 7.20408 0 8.27271 0 9.43364V19.004C0 19.5605 0.451189 20.0117 1.00776 20.0117ZM10.0314 12.0117H13.9686V15.9966H10.0314V12.0117ZM7.96897 12.2465V15.7619C7.96897 16.4533 8.13925 16.9459 8.47265 17.3207C8.7591 17.6421 9.26119 18.0121 9.84364 18.0121H14.1564C15.1908 18.0121 16.031 17.0581 16.031 15.7619V12.2465C16.031 11.5319 15.8361 11.0624 15.5027 10.6654C15.1693 10.2683 14.5797 9.9962 14.0155 9.9962H9.98448C8.814 9.9962 7.96897 10.9319 7.96897 12.2465ZM0 22.0201H1.9996V24.0117H0V22.0201Z" fill="#21216F"/>
</svg>
