<?xml version="1.0" encoding="UTF-8" standalone="no"?>
<svg
   width="20.092323"
   height="24"
   viewBox="0 0 20.092323 24"
   fill="none"
   version="1.1"
   id="svg253"
   sodipodi:docname="lock.svg"
   inkscape:version="1.2.2 (732a01da63, 2022-12-09)"
   xmlns:inkscape="http://www.inkscape.org/namespaces/inkscape"
   xmlns:sodipodi="http://sodipodi.sourceforge.net/DTD/sodipodi-0.dtd"
   xmlns="http://www.w3.org/2000/svg"
   xmlns:svg="http://www.w3.org/2000/svg">
  <defs
     id="defs257" />
  <sodipodi:namedview
     id="namedview255"
     pagecolor="#505050"
     bordercolor="#ffffff"
     borderopacity="1"
     inkscape:showpageshadow="0"
     inkscape:pageopacity="0"
     inkscape:pagecheckerboard="1"
     inkscape:deskcolor="#505050"
     showgrid="false"
     inkscape:zoom="0.039860478"
     inkscape:cx="-439.03136"
     inkscape:cy="-2320.5943"
     inkscape:window-width="1387"
     inkscape:window-height="1040"
     inkscape:window-x="1972"
     inkscape:window-y="0"
     inkscape:window-maximized="0"
     inkscape:current-layer="svg253" />
  <path
     id="path248"
     style="fill:#000000;stroke-width:0.837168"
     d="M 9.7352457,0 C 8.6924716,0.04952534 7.6605302,0.32145115 6.7483706,0.81220313 5.0473992,1.7261719 3.9668376,3.1318286 3.3509174,4.9624687 3.0177504,5.9547787 3.0294957,7.1037482 3.0294957,8.4373126 2.2803155,8.6120292 1.2663949,9.6862639 0.86658938,10.258969 0.60995604,10.625398 0.37673359,11.14946 0.23626125,11.643891 c -0.15127763,0.533944 -0.20714062,1.145331 -0.20714062,1.808953 0,1.820082 -0.04873794,3.702412 -0.02010938,5.53589 0.00881,0.564166 0.47210923,1.011469 1.03635935,1.011469 0.5780802,0 1.0467188,-0.468656 1.0467188,-1.046719 v -6.15614 c 0,-1.392123 1.3741324,-2.766235 2.7653438,-2.766235 H 15.264058 c 1.393883,0 2.765344,1.372353 2.765344,2.766235 v 6.421265 c 0,0.399746 -0.154883,0.83022 -0.295359,1.111172 -0.488989,0.975131 -1.486657,1.654969 -2.610469,1.654969 H 5.0681364 c -0.5564897,0 -1.0076252,0.45116 -1.0076252,1.007625 C 4.0605112,23.548923 4.5116467,24 5.0681364,24 H 15.264058 c 0.910336,0 1.749574,-0.330419 2.411438,-0.729328 0.170196,-0.102638 0.237695,-0.159429 0.391734,-0.263906 0.295352,-0.198996 0.731179,-0.642906 0.94725,-0.927375 0.334114,-0.43767 0.474498,-0.706016 0.702375,-1.220204 0.252992,-0.574463 0.375469,-1.374929 0.375469,-2.202468 v -5.203875 c 0,-1.379483 -0.262032,-2.317749 -0.824859,-3.158766 C 18.930757,9.7916107 18.563348,9.3494736 18.077121,8.9992032 17.977164,8.927207 17.885326,8.8704847 17.767371,8.7930468 17.590895,8.677769 17.295511,8.485031 17.091996,8.4373126 c 0,-1.383091 0.01174,-2.3483842 -0.311578,-3.4388439 C 16.243794,3.1831406 15.02268,1.729783 13.403683,0.82842187 12.496948,0.32416392 11.466847,0.04952534 10.424074,0 Z m 0.2390155,2.0019375 c 1.2776548,-0.00958 2.5372368,0.5051908 3.5672348,1.4081251 0.26739,0.2341219 0.831999,1.0175222 0.999515,1.3903123 0.580823,1.2930621 0.488907,1.7936993 0.488907,3.1687032 H 5.0924174 V 6.7498594 c 0,-0.7797956 0.237745,-1.3605792 0.4745626,-1.9161562 C 5.7011527,4.5185352 6.0280111,4.0214782 6.2756364,3.7621406 6.3990012,3.6324802 6.4287028,3.5505278 6.5556674,3.4325626 L 7.2076051,2.913 C 7.4516308,2.7338045 7.6893537,2.6086246 7.9820268,2.4681562 8.630789,2.155836 9.3050136,2.0069573 9.9742612,2.0019375 Z m 0.086485,11.9784375 c -0.5157353,0 -1.0314836,0.402285 -1.0314836,1.206844 0,0.821177 -0.1251578,1.940477 0.2323126,2.440265 0.3602321,0.501547 1.21924,0.4961 1.578468,0.02695 0.382752,-0.497946 0.25214,-1.647799 0.25214,-2.467218 0,-0.804559 -0.515701,-1.206844 -1.031437,-1.206844 z m -9.98840542,8.023312 v 1.992704 H 2.0722612 v -1.992704 z" />
</svg>
