<svg width="24" height="18" viewBox="0 0 24 18" fill="none" xmlns="http://www.w3.org/2000/svg">
<path fill-rule="evenodd" clip-rule="evenodd" d="M17.0609 15.9733C13.5422 15.9733 11.0917 13.8909 5.95292 14.6131C5.60535 14.6624 5.25937 14.7188 4.9627 14.7942C4.58332 14.8904 4.2962 14.9746 4.0035 14.9833V16.9878H3.53663C4.05679 17.0387 4.58014 16.9727 5.13132 16.8345C5.48446 16.7463 5.77556 16.6827 6.1454 16.6311C6.47865 16.585 6.90178 16.5318 7.26685 16.535C8.81223 16.5469 8.58396 16.3483 10.5747 16.7415C11.2858 16.8822 11.8847 17.0705 12.5249 17.2278C15.3548 17.9229 16.8843 18.3917 19.8518 17.5448C20.6288 17.3239 21.3136 17.0339 21.8863 16.6287C22.4526 16.2283 22.9234 15.6968 23.302 15.0938C23.6074 14.6075 23.9948 13.6104 23.9948 12.8374V4.78762C23.9948 3.97486 23.5852 3.01114 23.0698 2.43513L22.579 1.94255C21.5029 1.00108 20.2367 0.822315 18.8687 1.16474C18.5164 1.25293 18.2245 1.31649 17.8546 1.36813C16.3808 1.57311 14.8705 1.54371 13.4253 1.2577C9.92334 0.565694 8.09561 -0.671329 4.14826 0.454466C2.6347 0.885874 1.55699 1.53974 0.698004 2.90547C0.392587 3.3917 0.00524902 4.38879 0.00524902 5.16183V12.9939H2.01989V5.3962C2.01989 4.2132 2.77866 3.23598 3.58117 2.83635C4.54832 2.35489 5.89009 2.02597 7.03381 2.02597C10.7107 2.02597 12.1631 4.03762 18.0877 3.37978C19.3085 3.24392 20.3449 2.54795 21.39 3.59827C21.7145 3.92401 21.9801 4.35145 21.9801 4.97433V12.6038C21.9801 13.8178 21.2253 14.7299 20.4189 15.1629C19.6951 15.5514 18.1624 15.9733 17.0609 15.9733ZM12.1408 10.9656C11.2627 10.9656 10.6559 10.6692 10.2383 9.91686C9.75393 9.04371 10.0633 7.80431 11.0822 7.24022C12.2712 6.58158 13.9677 7.47141 13.9677 8.85939V9.13985C13.9677 10.0654 13.0674 10.9656 12.1408 10.9656ZM7.97074 9.00002C7.97074 11.8991 11.3112 14.2548 14.2684 12.2948C14.5937 12.0787 15.0693 11.6123 15.2801 11.2937C15.432 11.0641 15.5274 10.8965 15.6555 10.6391C16.5001 8.94043 15.8018 6.71585 14.2962 5.72353C13.8627 5.43752 13.4476 5.22062 12.9099 5.09588C11.5276 4.7757 10.15 5.19361 9.17014 6.17242C8.45273 6.88905 7.97074 7.95605 7.97074 9.00002ZM17.9978 12.9312C17.9978 14.4208 20.0124 14.2881 20.0124 12.978C20.0124 11.6592 17.9978 11.6989 17.9978 12.9312ZM17.9978 6.94069C17.9978 8.43036 20.0124 8.29689 20.0124 6.98677C20.0124 5.66792 17.9978 5.70764 17.9978 6.94069ZM3.9876 4.97433C3.9876 6.31146 6.00303 6.40838 6.00303 4.92745C6.00303 3.67454 3.9876 3.72539 3.9876 4.97433ZM3.9876 10.9656C3.9876 12.3027 6.00303 12.3988 6.00303 10.9187C6.00303 9.665 3.9876 9.71665 3.9876 10.9656ZM0.00524902 14.9952H2.00398V16.9839H0.00524902V14.9952Z" fill="#21216F"/>
</svg>
