<?xml version="1.0" encoding="UTF-8" standalone="no"?>
<svg
   width="24"
   height="24"
   viewBox="0 0 24 24"
   fill="none"
   version="1.1"
   id="svg643"
   sodipodi:docname="notification.svg"
   inkscape:version="1.2.2 (732a01da63, 2022-12-09)"
   xmlns:inkscape="http://www.inkscape.org/namespaces/inkscape"
   xmlns:sodipodi="http://sodipodi.sourceforge.net/DTD/sodipodi-0.dtd"
   xmlns="http://www.w3.org/2000/svg"
   xmlns:svg="http://www.w3.org/2000/svg">
  <sodipodi:namedview
     id="namedview645"
     pagecolor="#505050"
     bordercolor="#ffffff"
     borderopacity="1"
     inkscape:showpageshadow="0"
     inkscape:pageopacity="0"
     inkscape:pagecheckerboard="1"
     inkscape:deskcolor="#505050"
     showgrid="false"
     inkscape:zoom="2.1796875"
     inkscape:cx="128"
     inkscape:cy="68.358423"
     inkscape:window-width="1920"
     inkscape:window-height="1017"
     inkscape:window-x="1912"
     inkscape:window-y="-8"
     inkscape:window-maximized="1"
     inkscape:current-layer="svg643" />
  <path
     id="path708"
     style="fill:#000000"
     d="M 11.820312 0.00390625 C 11.690841 0.0018975184 11.559562 0.0024543728 11.429688 0.005859375 C 9.3517696 0.060339431 7.3523953 0.80720857 5.7480469 2.1289062 C 4.1436985 3.4506049 3.0273714 5.2716933 2.5761719 7.3007812 L 1.3222656 12.9375 C 1.2023357 13.476799 1.5427218 14.013013 2.0820312 14.132812 C 2.6213007 14.252712 3.1555707 13.912346 3.2753906 13.373047 L 4.5273438 7.7324219 C 4.8816934 6.1386335 5.7593825 4.710034 7.0195312 3.671875 C 8.27968 2.633726 9.8503035 2.0466662 11.482422 2.0039062 C 13.11462 1.9611463 14.714545 2.4647978 16.027344 3.4355469 C 17.340042 4.4063059 18.291116 5.7882797 18.728516 7.3613281 L 20.628906 14.197266 C 20.754406 14.642665 20.772647 15.109954 20.685547 15.564453 C 20.598347 16.018853 20.408253 16.447153 20.126953 16.814453 C 19.848253 17.184153 19.486965 17.483753 19.072266 17.689453 C 18.657466 17.895153 18.199228 18.0019 17.736328 18 L 6.9863281 18 C 6.4340487 18 5.9863281 18.447801 5.9863281 19 C 5.9863281 19.552299 6.4340387 20 6.9863281 20 L 7.0996094 20 C 7.3291191 21.130299 7.9429284 22.147054 8.8359375 22.876953 C 9.7289466 23.606852 10.846601 24.005859 12 24.005859 C 13.153299 24.005859 14.271063 23.606852 15.164062 22.876953 C 16.057062 22.147054 16.670791 21.130299 16.900391 20 L 17.738281 20 C 18.50908 20.0001 19.268485 19.820915 19.958984 19.478516 C 20.649584 19.136016 21.25225 18.63899 21.71875 18.025391 C 22.18515 17.411791 22.503138 16.698405 22.648438 15.941406 C 22.793637 15.184407 22.760887 14.404809 22.554688 13.662109 L 20.654297 6.8261719 C 20.097297 4.8235139 18.888195 3.0639438 17.216797 1.828125 C 15.649861 0.66955147 13.762387 0.034037224 11.820312 0.00390625 z M 1.1054688 18 L 1.1054688 20 L 3.1054688 20 L 3.1054688 18 L 1.1054688 18 z M 9.1835938 20 L 14.816406 20 C 14.610306 20.582899 14.228609 21.087313 13.724609 21.445312 C 13.22051 21.803412 12.618199 21.9975 12 22 C 11.381701 21.9975 10.77939 21.803412 10.275391 21.445312 C 9.7712811 21.087313 9.3896735 20.582899 9.1835938 20 z " />
  <defs
     id="defs641">
    <clipPath
       clipPathUnits="userSpaceOnUse"
       id="clipPath671">
      <g
         id="g675">
        <rect
           width="24"
           height="24"
           fill="#ffffff"
           id="rect673"
           x="0"
           y="0" />
      </g>
    </clipPath>
    <clipPath
       clipPathUnits="userSpaceOnUse"
       id="clipPath677">
      <g
         id="g681">
        <rect
           width="24"
           height="24"
           fill="#ffffff"
           id="rect679"
           x="0"
           y="0" />
      </g>
    </clipPath>
  </defs>
</svg>
