<svg width="24" height="24" viewBox="0 0 24 24" fill="none" xmlns="http://www.w3.org/2000/svg">
<g clip-path="url(#clip0_546_2315)">
<path fill-rule="evenodd" clip-rule="evenodd" d="M22.5551 13.6619L20.6551 6.82593C20.0981 4.82327 18.8878 3.06422 17.2164 1.8284C15.545 0.592587 13.5085 -0.049079 11.4305 0.00540109C9.35258 0.0598812 7.35247 0.807381 5.74812 2.12908C4.14377 3.45078 3.02726 5.27084 2.57606 7.29993L1.32221 12.9384C1.20228 13.4777 1.5423 14.0121 2.08161 14.1319C2.62088 14.2518 3.15519 13.9118 3.27501 13.3725L4.52806 7.73293C4.88241 6.13914 5.75936 4.70954 7.01951 3.67138C8.27966 2.63323 9.85068 2.04611 11.4828 2.00335C13.115 1.96059 14.7146 2.46465 16.0274 3.4354C17.3401 4.40616 18.2907 5.78788 18.7281 7.36093L20.6281 14.1969C20.7536 14.6423 20.7736 15.1108 20.6865 15.5653C20.5993 16.0197 20.4074 16.4476 20.1261 16.8149C19.8474 17.1846 19.4864 17.4842 19.0717 17.6899C18.6569 17.8956 18.2 18.0018 17.7371 17.9999H6.98605C6.43377 17.9999 5.98606 18.4477 5.98606 18.9999C5.98606 19.5522 6.43377 19.9999 6.98606 19.9999H7.10006C7.32957 21.1302 7.94279 22.1464 8.8358 22.8763C9.72881 23.6062 10.8467 24.0049 12.0001 24.0049C13.1534 24.0049 14.2713 23.6062 15.1643 22.8763C16.0573 22.1464 16.6705 21.1302 16.9001 19.9999H17.7381C18.5089 20 19.2693 19.8218 19.9598 19.4794C20.6504 19.1369 21.2524 18.6394 21.7189 18.0258C22.1853 17.4122 22.5036 16.699 22.6489 15.942C22.7941 15.185 22.7613 14.4046 22.5551 13.6619ZM10.2754 21.4458C10.7794 21.8039 11.3818 21.9974 12.0001 21.9999C12.6183 21.9974 13.2207 21.8039 13.7248 21.4458C14.2288 21.0878 14.61 20.5828 14.8161 19.9999H9.18406C9.39014 20.5828 9.77129 21.0878 10.2754 21.4458Z" fill="#21216F"/>
<path d="M1.10498 17.9999H3.10498V19.9999H1.10498V17.9999Z" fill="#21216F"/>
</g>
<defs>
<clipPath id="clip0_546_2315">
<rect width="24" height="24" fill="white"/>
</clipPath>
</defs>
</svg>
