<svg width="24" height="25" viewBox="0 0 24 25" fill="none" xmlns="http://www.w3.org/2000/svg">
<path fill-rule="evenodd" clip-rule="evenodd" d="M5.00184 18.4924L6.41546 17.0796L7.82272 18.4868L6.4099 19.9005L5.00184 18.4924ZM5.11872 8.31003L2.42981 10.9989C1.84544 11.5833 1.84544 12.5406 2.42981 13.1257L4.31311 15.0084C4.6803 15.3755 4.68034 15.9708 4.31322 16.3379C3.94617 16.7049 3.35108 16.705 2.98398 16.338L0.92317 14.2778C-0.294865 13.0589 -0.294865 11.0649 0.92317 9.84689L3.78937 6.98069L5.11872 8.31003ZM18.8812 15.8146L21.5701 13.1257C22.1553 12.5406 22.1553 11.5833 21.5701 10.9989L18.8812 8.31003L20.2106 6.98069L23.0768 9.84689C24.2948 11.0649 24.2948 13.0589 23.0768 14.2778L20.2106 17.1432L18.8812 15.8146ZM9.78494 23.1387L8.55577 21.9096C8.18868 21.5425 8.18868 20.9473 8.55577 20.5802C8.92286 20.2131 9.51803 20.2131 9.88511 20.5802L10.937 21.6321C11.5214 22.2173 12.4786 22.2173 13.0638 21.6321L16.1216 18.5743L13.0256 15.4783C12.4404 14.8932 11.3838 14.758 10.7986 15.3432L9.15207 16.9905L7.82272 15.6612L9.64739 13.8365C10.8654 12.6185 12.997 12.756 14.215 13.9741L17.4684 17.2275L18.7978 18.5568L14.215 23.1387C12.997 24.3568 11.003 24.3568 9.78494 23.1387ZM9.78494 10.1498L6.394 6.75966L7.72334 5.43032L10.937 8.64396C11.5221 9.22833 12.4786 9.22833 13.0638 8.64396L16.1216 5.58535L13.0256 2.48938C12.4404 1.90421 11.3838 1.76985 10.7994 2.35422L6.394 6.75966L5.06465 5.43032L9.64739 0.847577C10.8654 -0.370459 12.997 -0.232914 14.2158 0.985918L17.4684 4.23852L18.7978 5.56786L14.2158 10.1498C12.997 11.3686 11.003 11.3686 9.78494 10.1498Z" fill="#21216F"/>
</svg>
