<?xml version="1.0" encoding="UTF-8" standalone="no"?>
<!-- Created with Inkscape (http://www.inkscape.org/) -->

<svg
   width="24.436266"
   height="24"
   viewBox="0 0 24.436266 24"
   version="1.1"
   id="svg5"
   xml:space="preserve"
   inkscape:version="1.2.2 (732a01da63, 2022-12-09)"
   sodipodi:docname="profile_checked.svg"
   xmlns:inkscape="http://www.inkscape.org/namespaces/inkscape"
   xmlns:sodipodi="http://sodipodi.sourceforge.net/DTD/sodipodi-0.dtd"
   xmlns="http://www.w3.org/2000/svg"
   xmlns:svg="http://www.w3.org/2000/svg"><sodipodi:namedview
     id="namedview7"
     pagecolor="#505050"
     bordercolor="#ffffff"
     borderopacity="1"
     inkscape:showpageshadow="0"
     inkscape:pageopacity="0"
     inkscape:pagecheckerboard="1"
     inkscape:deskcolor="#505050"
     inkscape:document-units="px"
     showgrid="false"
     inkscape:zoom="2.1089995"
     inkscape:cx="77.287832"
     inkscape:cy="95.305855"
     inkscape:window-width="1920"
     inkscape:window-height="1017"
     inkscape:window-x="1912"
     inkscape:window-y="-8"
     inkscape:window-maximized="1"
     inkscape:current-layer="layer1" /><defs
     id="defs2" /><g
     inkscape:label="Camada 1"
     inkscape:groupmode="layer"
     id="layer1"
     transform="translate(-6.461302,-6.3476565)"><path
       id="path807"
       style="color:#000000;fill:#000000;stroke-width:2.03869;-inkscape-stroke:none"
       d="M 18.680052 6.3476565 C 17.614545 6.3476565 16.548757 6.819637 15.857786 7.761719 L 15.455443 8.3066409 C 14.76617 9.2465591 13.657345 9.7794775 12.492552 9.7324221 L 11.820677 9.7050784 C 9.4859658 9.6107666 7.6876897 11.860108 8.2991926 14.115235 L 8.4749739 14.769531 C 8.7800491 15.894704 8.5055669 17.09323 7.742552 17.97461 L 7.3011457 18.488281 C 5.7717488 20.254798 6.4145163 23.062288 8.5589582 23.990235 L 9.180052 24.257813 C 10.249831 24.720691 11.017504 25.683838 11.230833 26.830078 L 11.35388 27.494141 C 11.781469 29.791175 14.377229 31.041596 16.439818 29.94336 L 17.035521 29.625 C 18.064584 29.077161 19.29578 29.077216 20.324583 29.625 L 20.922239 29.94336 C 22.984836 31.041604 25.580743 29.791259 26.008177 27.494141 L 26.131224 26.830078 C 26.344622 25.683752 27.11223 24.72068 28.182005 24.257813 L 28.803099 23.990235 C 30.947495 23.062284 31.586567 20.254798 30.057005 18.488281 L 29.615599 17.97461 C 28.852592 17.093197 28.576089 15.894626 28.881224 14.769531 L 29.057005 14.115235 C 29.668445 11.860122 27.876126 9.6107474 25.54138 9.7050784 L 24.863646 9.7324221 C 23.70006 9.7794061 22.59605 9.244648 21.906614 8.3066409 L 21.902708 8.3066409 L 21.500364 7.761719 L 21.320677 7.5136721 L 21.193724 7.605469 C 20.509281 6.8575318 19.629441 6.3476565 18.680052 6.3476565 z M 18.680052 8.2792971 C 19.140452 8.2792971 19.599567 8.4927335 19.914427 8.9199221 C 19.915228 8.9210121 19.917533 8.9188321 19.918333 8.9199221 L 20.316771 9.464844 C 20.317871 9.466394 20.319477 9.4672003 20.320677 9.4687502 L 20.898802 10.257813 L 21.098021 10.115235 C 22.154317 11.096166 23.476214 11.754596 24.943724 11.695313 L 25.621458 11.667969 C 26.685613 11.624969 27.441125 12.573863 27.162474 13.601563 L 26.986693 14.25586 C 26.511013 16.009797 26.940029 17.885984 28.129271 19.259766 L 28.57263 19.773438 C 29.269727 20.578523 28.999095 21.764616 28.021849 22.1875 L 27.400755 22.455078 C 25.732977 23.1767 24.532151 24.68613 24.199583 26.472656 L 24.076536 27.136719 C 23.88176 28.183457 22.782139 28.707529 21.842161 28.207031 L 21.244505 27.892578 C 19.640546 27.038557 17.717748 27.038612 16.113646 27.892578 L 15.515989 28.207031 C 14.575819 28.707544 13.480386 28.183538 13.285521 27.136719 L 13.162474 26.472656 C 12.830166 24.687111 11.627479 23.177184 9.961302 22.455078 L 9.9573957 22.455078 L 9.3402082 22.1875 C 8.3629302 21.764611 8.0885109 20.578514 8.7855207 19.773438 L 9.2288801 19.259766 C 10.418244 17.885954 10.846995 16.009718 10.371458 14.25586 L 10.195677 13.601563 C 9.91701 12.573877 10.67653 11.624976 11.740599 11.667969 L 12.412474 11.695313 C 14.228161 11.768663 15.964825 10.930213 17.039427 9.464844 L 17.441771 8.9199221 C 17.756685 8.4905607 18.21848 8.2792971 18.680052 8.2792971 z " /><path
       style="stroke-width:2.03869;fill:#000000"
       d="m 23.90944,17.751371 c 0.321912,-0.315184 0.327005,-0.831786 0.01162,-1.15288 -0.318643,-0.321296 -0.833213,-0.327212 -1.153084,-0.0104 l -3.608892,3.542226 c -0.636072,0.622819 -1.635234,0.626087 -2.26784,0.01488 l -1.543698,-1.517806 c -0.320686,-0.316611 -0.83831,-0.312126 -1.153084,0.0098 -0.315385,0.321096 -0.31151,0.837698 0.0098,1.153084 l 1.548794,1.522902 c 0.635872,0.61385 1.44951,0.920062 2.263967,0.920062 0.822816,0 1.644205,-0.312126 2.283335,-0.938206 z"
       id="path801" /></g></svg>
