<svg width="24" height="24" viewBox="0 0 24 24" fill="none" xmlns="http://www.w3.org/2000/svg">
<path fill-rule="evenodd" clip-rule="evenodd" d="M14.9998 6.84384V4.12493C14.9998 2.96956 15.8369 2.01552 16.9692 2.01552H20.0159C21.0981 2.01552 21.9845 2.90193 21.9845 3.98409V7.07858C21.9845 7.65944 21.6837 8.1106 21.3177 8.47344C20.9644 8.82435 20.4711 9.0002 19.7812 9.0002H17.1562C15.8655 9.0002 14.9998 8.13447 14.9998 6.84384ZM12.9843 3.89099V7.03163C12.9843 9.19515 14.8056 11.0157 16.9692 11.0157H20.1098C21.1434 11.0157 22.0959 10.5534 22.7929 9.85558C23.1605 9.48797 23.3634 9.24607 23.6101 8.75114C23.8003 8.3708 24 7.76686 24 7.21862V3.7971C24 3.08494 23.6578 2.19773 23.2847 1.70042C22.5638 0.738413 21.4808 0 20.2037 0H16.7814C14.8558 0 12.9843 1.84842 12.9843 3.89099ZM6.84384 9.0002H4.21882C3.27511 9.0002 2.6115 8.62781 2.23274 7.89178C2.12453 7.68092 2.01552 7.37458 2.01552 7.07858V3.98409C2.01552 2.90193 2.90193 2.01552 3.98409 2.01552H7.07858C7.65944 2.01552 8.1106 2.31629 8.47344 2.68232C8.82435 3.0364 9.0002 3.52974 9.0002 4.21882V6.84384C9.0002 8.13447 8.13447 9.0002 6.84384 9.0002ZM0 3.7971V7.21862C0 8.63418 1.1108 10.1333 2.32982 10.6545C2.73961 10.8295 3.33002 11.0157 3.89099 11.0157H7.03163C9.19594 11.0157 11.0157 9.19435 11.0157 7.03163V3.89099C11.0157 3.13587 10.7102 2.29879 10.3131 1.73384L9.74259 1.08534C9.07102 0.471056 8.19256 0 7.21862 0H3.7971C2.73801 0 1.59538 0.607122 0.943704 1.41317C0.397056 2.08952 0 2.83111 0 3.7971ZM7.07858 21.9845H4V24H3.78993H3.7971H7.21862C7.78357 24 8.35886 23.8051 8.75035 23.6101C9.24448 23.365 9.48956 23.1589 9.85558 22.7929C10.0426 22.6067 10.1325 22.5152 10.2932 22.2932C10.4173 22.1221 10.5693 21.8707 10.6545 21.6702C10.8295 21.2612 11.0157 20.6708 11.0157 20.1098V16.9692C11.0157 14.8056 9.19594 12.9843 7.03163 12.9843H3.89099C3.33002 12.9843 2.73961 13.1705 2.32982 13.3455C2.13567 13.4283 1.889 13.5787 1.73384 13.6869C0.795703 14.3473 0 15.5568 0 16.7814V20.2037V20.2101V20.0159H2.01552V16.9692C2.01552 16.2984 2.31311 15.8974 2.65924 15.5504C3.02606 15.1828 3.50269 14.9998 4.21882 14.9998H6.84384C8.13447 14.9998 9.0002 15.8655 9.0002 17.1562V19.8281C9.0002 21.0845 8.08594 21.9845 7.07858 21.9845ZM12.9843 21.4689C12.9843 22.2789 12.8808 22.9441 13.3718 23.5194C13.6511 23.8464 14.0243 23.9634 14.4396 24H15.6563C15.9992 24 16.4639 23.7128 16.6286 23.5194C17.1196 22.9441 17.0161 22.2789 17.0161 21.4689C17.0161 20.6016 16.2586 19.969 15.3754 19.969H14.625C13.7354 19.969 12.9843 20.592 12.9843 21.4689ZM19.969 14.7189C19.969 15.412 19.9172 15.9642 20.3573 16.487C20.9047 17.1379 21.593 17.0161 22.4532 17.0161C22.9011 17.0161 23.2703 16.8411 23.5194 16.6286C23.8464 16.3493 23.9634 15.9761 24 15.5608V14.3441C24 13.6901 23.3435 12.9843 22.4532 12.9843C21.5946 12.9843 20.9318 12.8641 20.3788 13.488C20.1146 13.7864 19.969 14.1731 19.969 14.7189ZM12.9843 14.4842V15.5154C12.9843 16.3207 13.6789 17.0161 14.4842 17.0161H15.5154C16.3207 17.0161 17.0161 16.3207 17.0161 15.5154V14.4842C17.0161 13.6789 16.3207 12.9843 15.5154 12.9843H14.4842C13.6789 12.9843 12.9843 13.6789 12.9843 14.4842ZM16.9692 5.10921C16.9692 6.87647 17.1235 7.03163 18.8908 7.03163C20.1997 7.03163 20.0159 5.77919 20.0159 4.96917C20.0159 4.45912 19.5417 3.98409 19.0316 3.98409C18.2208 3.98409 16.9692 3.80028 16.9692 5.10921ZM3.98409 4.96917C3.98409 5.77919 3.80028 7.03163 5.10921 7.03163C6.87647 7.03163 7.03163 6.87647 7.03163 5.10921C7.03163 3.80028 5.77919 3.98409 4.96917 3.98409C4.45912 3.98409 3.98409 4.45912 3.98409 4.96917ZM3.98409 18.0473V19.0316C3.98409 19.5417 4.45912 20.0159 4.96917 20.0159C5.77919 20.0159 7.03163 20.1997 7.03163 18.8908C7.03163 17.1235 6.87647 16.9692 5.10921 16.9692C4.46469 16.9692 3.98409 17.4004 3.98409 18.0473ZM18.4691 20.0159C20.0748 20.0159 20.6596 17.858 19.1112 17.1235C17.8834 16.5419 16.5538 17.854 17.1084 19.0794C17.3256 19.5592 17.7792 20.0159 18.4691 20.0159ZM0 22.0084H2.0004V24H0V22.0084Z" fill="#21216F"/>
</svg>
