<?xml version="1.0" encoding="UTF-8" standalone="no"?>
<svg
   width="24"
   height="24"
   viewBox="0 0 24 24"
   fill="none"
   version="1.1"
   id="svg66"
   sodipodi:docname="report.svg"
   inkscape:version="1.2.2 (732a01da63, 2022-12-09)"
   xmlns:inkscape="http://www.inkscape.org/namespaces/inkscape"
   xmlns:sodipodi="http://sodipodi.sourceforge.net/DTD/sodipodi-0.dtd"
   xmlns="http://www.w3.org/2000/svg"
   xmlns:svg="http://www.w3.org/2000/svg">
  <sodipodi:namedview
     id="namedview68"
     pagecolor="#505050"
     bordercolor="#ffffff"
     borderopacity="1"
     inkscape:showpageshadow="0"
     inkscape:pageopacity="0"
     inkscape:pagecheckerboard="1"
     inkscape:deskcolor="#505050"
     showgrid="false"
     inkscape:zoom="33.916667"
     inkscape:cx="11.85258"
     inkscape:cy="12"
     inkscape:window-width="1920"
     inkscape:window-height="1017"
     inkscape:window-x="1912"
     inkscape:window-y="-8"
     inkscape:window-maximized="1"
     inkscape:current-layer="svg66" />
  <path
     id="rect221"
     clip-path="url(#clipPath186)"
     style="fill:#21216f"
     d="m 0,22 h 2 v 2 H 0 Z M 6.00003,8.99992 c 0.2652,-6e-5 0.51951,-0.10545 0.707,-0.293 L 10.293,5.12092 C 10.4836,4.93934 10.7368,4.83806 11,4.83806 c 0.2633,0 0.5164,0.10128 0.707,0.28286 l 2.172,2.172 c 0.5626,0.56241 1.3255,0.87836 2.121,0.87836 0.7955,0 1.5584,-0.31595 2.121,-0.87836 l 5.586,-5.586 C 23.8892,1.51832 23.99,1.26571 23.9877,1.00352 23.9854,0.741321 23.8803,0.490508 23.6948,0.3051 23.5094,0.119692 23.2586,0.0145233 22.9964,0.0122448 22.7342,0.00996641 22.4816,0.110761 22.293,0.292919 L 16.707,5.87792 C 16.5195,6.06539 16.2652,6.17071 16,6.17071 c -0.2651,0 -0.5194,-0.10532 -0.707,-0.29279 l -2.172,-2.171 C 12.5584,3.14451 11.7955,2.82856 11,2.82856 c -0.7955,0 -1.55839,0.31595 -2.12097,0.87836 l -3.586,3.586 C 5.15322,7.43277 5.05802,7.61093 5.01945,7.80489 4.98088,7.99884 5.00068,8.19987 5.07635,8.38257 5.15202,8.56527 5.28016,8.72144 5.44457,8.83132 5.60898,8.94121 5.80228,8.99988 6.00003,8.99992 Z M 20,9 v 10 c 0,0.2652 0.1054,0.5196 0.2929,0.7071 C 20.4804,19.8946 20.7348,20 21,20 21.2652,20 21.5196,19.8946 21.7071,19.7071 21.8946,19.5196 22,19.2652 22,19 V 9 C 22,8.73478 21.8946,8.48043 21.7071,8.29289 21.5196,8.10536 21.2652,8 21,8 20.7348,8 20.4804,8.10536 20.2929,8.29289 20.1054,8.48043 20,8.73478 20,9 Z m -5,4 v 6 c 0,0.2652 0.1054,0.5196 0.2929,0.7071 C 15.4804,19.8946 15.7348,20 16,20 16.2652,20 16.5196,19.8946 16.7071,19.7071 16.8946,19.5196 17,19.2652 17,19 V 13 C 17,12.7348 16.8946,12.4804 16.7071,12.2929 16.5196,12.1054 16.2652,12 16,12 15.7348,12 15.4804,12.1054 15.2929,12.2929 15.1054,12.4804 15,12.7348 15,13 Z m -5,-3 v 9 c 0,0.2652 0.1054,0.5196 0.2929,0.7071 C 10.4804,19.8946 10.7348,20 11,20 11.2652,20 11.5196,19.8946 11.7071,19.7071 11.8946,19.5196 12,19.2652 12,19 V 10 C 12,9.73478 11.8946,9.48043 11.7071,9.29289 11.5196,9.10536 11.2652,9 11,9 10.7348,9 10.4804,9.10536 10.2929,9.29289 10.1054,9.48043 10,9.73478 10,10 Z M 6,20 C 6.26522,20 6.51957,19.8946 6.70711,19.7071 6.89464,19.5196 7,19.2652 7,19 V 12 C 7,11.7348 6.89464,11.4804 6.70711,11.2929 6.51957,11.1054 6.26522,11 6,11 5.73478,11 5.48043,11.1054 5.29289,11.2929 5.10536,11.4804 5,11.7348 5,12 v 7 c 0,0.2652 0.10536,0.5196 0.29289,0.7071 C 5.48043,19.8946 5.73478,20 6,20 Z M 2,1 V 18 C 2,18.5523 1.55228,19 1,19 0.447715,19 0,18.5523 0,18 V 1 C 0,0.734784 0.105357,0.48043 0.292893,0.292893 0.48043,0.105357 0.734784,0 1,0 1.26522,0 1.51957,0.105357 1.70711,0.292893 1.89464,0.48043 2,0.734784 2,1 Z m 4,21 h 17 c 0.2652,0 0.5196,0.1054 0.7071,0.2929 C 23.8946,22.4804 24,22.7348 24,23 24,23.2652 23.8946,23.5196 23.7071,23.7071 23.5196,23.8946 23.2652,24 23,24 H 6 C 5.44772,24 5,23.5523 5,23 5,22.4477 5.44772,22 6,22 Z" />
  <defs
     id="defs64">
    <clipPath
       clipPathUnits="userSpaceOnUse"
       id="clipPath186">
      <g
         id="g190">
        <rect
           width="24"
           height="24"
           fill="#ffffff"
           id="rect188"
           x="0"
           y="0" />
      </g>
    </clipPath>
  </defs>
</svg>
