<svg width="24" height="24" viewBox="0 0 24 24" fill="none" xmlns="http://www.w3.org/2000/svg">
<g clip-path="url(#clip0_546_2330)">
<path d="M12 8C11.2089 8 10.4355 8.2346 9.77772 8.67412C9.11993 9.11365 8.60723 9.73836 8.30448 10.4693C8.00173 11.2002 7.92252 12.0044 8.07686 12.7804C8.2312 13.5563 8.61216 14.269 9.17157 14.8284C9.73098 15.3878 10.4437 15.7688 11.2196 15.9231C11.9956 16.0775 12.7998 15.9983 13.5307 15.6955C14.2616 15.3928 14.8864 14.8801 15.3259 14.2223C15.7654 13.5645 16 12.7911 16 12C16 10.9391 15.5786 9.92172 14.8284 9.17157C14.0783 8.42143 13.0609 8 12 8ZM12 14C11.6044 14 11.2178 13.8827 10.8889 13.6629C10.56 13.4432 10.3036 13.1308 10.1522 12.7654C10.0009 12.3999 9.96126 11.9978 10.0384 11.6098C10.1156 11.2219 10.3061 10.8655 10.5858 10.5858C10.8655 10.3061 11.2219 10.1156 11.6098 10.0384C11.9978 9.96126 12.3999 10.0009 12.7654 10.1522C13.1308 10.3036 13.4432 10.56 13.6629 10.8889C13.8827 11.2178 14 11.6044 14 12C14 12.5304 13.7893 13.0391 13.4142 13.4142C13.0391 13.7893 12.5304 14 12 14Z" fill="#21216F"/>
<path d="M3.70504 15.007H5.70504V17.007H3.70504V15.007Z" fill="#21216F"/>
<path d="M21.294 13.9L20.85 13.644C21.0499 12.5564 21.0499 11.4416 20.85 10.354L21.294 10.098C21.6355 9.90102 21.9348 9.63871 22.1748 9.32606C22.4149 9.01341 22.591 8.65654 22.6932 8.27582C22.7953 7.8951 22.8215 7.49799 22.7702 7.10716C22.7188 6.71633 22.591 6.33944 22.394 5.998C22.1971 5.65656 21.9348 5.35727 21.6221 5.1172C21.3095 4.87714 20.9526 4.70101 20.5719 4.59886C20.1911 4.49672 19.794 4.47056 19.4032 4.52189C19.0124 4.57321 18.6355 4.70102 18.294 4.898L17.849 5.155C17.0086 4.43692 16.0427 3.88025 15 3.513V3C15 2.20435 14.684 1.44129 14.1214 0.87868C13.5588 0.31607 12.7957 0 12 0C11.2044 0 10.4413 0.31607 9.87872 0.87868C9.31611 1.44129 9.00004 2.20435 9.00004 3V3.513C7.95743 3.88157 6.99189 4.4396 6.15204 5.159L5.70504 4.9C5.01548 4.50218 4.19612 4.39457 3.42723 4.60086C2.65833 4.80715 2.00287 5.31044 1.60504 6C1.20722 6.68956 1.09962 7.50892 1.30591 8.27782C1.5122 9.04672 2.01548 9.70218 2.70504 10.1L3.14904 10.356C2.99221 11.2093 2.95843 12.0794 3.04769 12.9399C3.09135 13.3608 3.43772 13.6768 3.85855 13.7218C4.52895 13.7934 5.06548 13.1616 5.01832 12.489C4.96267 11.6953 5.04158 10.8945 5.25504 10.121C5.31311 9.90788 5.29898 9.68153 5.21486 9.47729C5.13074 9.27305 4.98136 9.10241 4.79004 8.992L3.70604 8.366C3.47623 8.23339 3.30851 8.01492 3.23978 7.75865C3.17105 7.50239 3.20693 7.22931 3.33954 6.9995C3.47215 6.76969 3.69062 6.60197 3.94689 6.53324C4.20316 6.46451 4.47623 6.50039 4.70604 6.633L5.79204 7.261C5.98362 7.37251 6.20682 7.41721 6.42657 7.38807C6.64632 7.35893 6.85015 7.25759 7.00604 7.1C7.89613 6.19134 9.01747 5.54302 10.249 5.225C10.4647 5.16956 10.6556 5.04375 10.7917 4.8675C10.9277 4.69125 11.001 4.47464 11 4.252V3C11 2.73478 11.1054 2.48043 11.2929 2.29289C11.4805 2.10536 11.7348 2 12 2C12.2653 2 12.5196 2.10536 12.7071 2.29289C12.8947 2.48043 13 2.73478 13 3V4.252C12.9999 4.47396 13.0737 4.68964 13.2096 4.86508C13.3456 5.04052 13.5361 5.16573 13.751 5.221C14.9831 5.54015 16.1044 6.18988 16.994 7.1C17.1495 7.25847 17.3533 7.36069 17.5733 7.39057C17.7933 7.42044 18.0169 7.37626 18.209 7.265L19.293 6.638C19.4068 6.5713 19.5327 6.52777 19.6633 6.5099C19.794 6.49204 19.9269 6.50019 20.0544 6.5339C20.1819 6.56761 20.3015 6.6262 20.4062 6.70631C20.511 6.78642 20.5989 6.88646 20.6648 7.00067C20.7307 7.11488 20.7734 7.24101 20.7904 7.37179C20.8074 7.50257 20.7984 7.63542 20.7639 7.76269C20.7293 7.88997 20.6699 8.00915 20.5891 8.11337C20.5083 8.2176 20.4077 8.30482 20.293 8.37L19.209 8.996C19.0181 9.10671 18.8691 9.27748 18.7854 9.48169C18.7016 9.68591 18.6878 9.9121 18.746 10.125V10.124C19.0847 11.3511 19.0847 12.6469 18.746 13.874C18.6869 14.0876 18.7004 14.3147 18.7844 14.5198C18.8684 14.7249 19.0181 14.8963 19.21 15.007L20.294 15.633C20.5239 15.7656 20.6916 15.9841 20.7603 16.2403C20.829 16.4966 20.7932 16.7697 20.6605 16.9995C20.5279 17.2293 20.3095 17.397 20.0532 17.4658C19.7969 17.5345 19.5239 17.4986 19.294 17.366L18.208 16.738C18.0159 16.6267 17.7923 16.5826 17.5723 16.6124C17.3523 16.6423 17.1485 16.7445 16.993 16.903C16.103 17.8117 14.9816 18.46 13.75 18.778C13.5351 18.8333 13.3446 18.9585 13.2086 19.1339C13.0727 19.3094 12.9989 19.525 12.999 19.747V21C12.999 21.2652 12.8937 21.5196 12.7062 21.7071C12.5186 21.8946 12.2643 22 11.999 22C11.7338 22 11.4795 21.8946 11.2919 21.7071C11.1044 21.5196 10.999 21.2652 10.999 21V19.748C10.9992 19.526 10.9254 19.3104 10.7894 19.1349C10.6535 18.9595 10.463 18.8343 10.248 18.779C9.47519 18.5786 8.7459 18.2482 8.09008 17.8049C7.52921 17.4259 6.70894 17.5751 6.43626 18.1947C6.26635 18.5807 6.36662 19.0369 6.70799 19.2846C7.40891 19.7933 8.18078 20.1986 9.00004 20.487V21C9.00004 21.7956 9.31611 22.5587 9.87872 23.1213C10.4413 23.6839 11.2044 24 12 24C12.7957 24 13.5588 23.6839 14.1214 23.1213C14.684 22.5587 15 21.7956 15 21V20.487C16.0427 20.1184 17.0082 19.5604 17.848 18.841L18.295 19.099C18.9846 19.4968 19.804 19.6044 20.5729 19.3981C21.3418 19.1918 21.9972 18.6886 22.395 17.999C22.7929 17.3094 22.9005 16.4901 22.6942 15.7212C22.4879 14.9523 21.9846 14.2968 21.295 13.899L21.294 13.9Z" fill="#21216F"/>
</g>
<defs>
<clipPath id="clip0_546_2330">
<rect width="24" height="24" fill="white"/>
</clipPath>
</defs>
</svg>
