<svg width="25" height="25" viewBox="0 0 25 25" fill="none" xmlns="http://www.w3.org/2000/svg">
<g clip-path="url(#clip0_734_3401)">
<path d="M19.8331 14.6787C19.077 14.6793 18.3324 14.8639 17.6636 15.2165C16.9947 15.5692 16.4217 16.0792 15.9941 16.7027L9.48505 13.7637C9.94737 12.6474 9.94916 11.3934 9.49005 10.2757L15.9901 7.32172C16.6239 8.23848 17.5654 8.89769 18.6436 9.17977C19.7219 9.46185 20.8656 9.34813 21.8672 8.85922C22.8688 8.37032 23.662 7.53862 24.1029 6.51499C24.5438 5.49136 24.6033 4.34359 24.2704 3.2799C23.9376 2.2162 23.2345 1.30702 22.2888 0.717277C21.343 0.127536 20.2172 -0.103705 19.1156 0.0654982C18.014 0.234702 17.0095 0.793143 16.2843 1.63953C15.5591 2.48591 15.1613 3.56417 15.1631 4.67872C15.1673 4.94252 15.1941 5.20548 15.2431 5.46472L8.33306 8.60472C7.66939 7.98294 6.83856 7.56856 5.94263 7.41248C5.0467 7.25641 4.12468 7.36544 3.28986 7.72618C2.45504 8.08692 1.74378 8.68366 1.24345 9.44308C0.743122 10.2025 0.47552 11.0915 0.473522 12.001C0.471524 12.9104 0.735216 13.8006 1.2322 14.5622C1.72919 15.3238 2.43783 15.9237 3.27105 16.2881C4.10428 16.6525 5.0258 16.7656 5.92241 16.6134C6.81902 16.4613 7.65167 16.0506 8.31805 15.4317L15.2461 18.5597C15.1979 18.8187 15.1715 19.0813 15.1671 19.3447C15.1669 20.2679 15.4404 21.1703 15.9532 21.9379C16.4659 22.7056 17.1948 23.3039 18.0476 23.6573C18.9004 24.0106 19.8389 24.1031 20.7443 23.9231C21.6497 23.7431 22.4814 23.2985 23.1341 22.6458C23.7869 21.993 24.2314 21.1614 24.4114 20.256C24.5915 19.3506 24.499 18.4121 24.1456 17.5593C23.7923 16.7065 23.1939 15.9776 22.4263 15.4648C21.6586 14.9521 20.7562 14.6785 19.8331 14.6787ZM19.8331 2.01172C20.3606 2.01152 20.8763 2.16777 21.315 2.46071C21.7537 2.75364 22.0957 3.1701 22.2978 3.65741C22.4998 4.14473 22.5527 4.681 22.4499 5.19842C22.3471 5.71583 22.0932 6.19114 21.7203 6.56422C21.3473 6.93731 20.8721 7.19142 20.3547 7.2944C19.8374 7.39739 19.3011 7.34463 18.8137 7.14281C18.3263 6.94098 17.9097 6.59914 17.6166 6.16053C17.3235 5.72193 17.1671 5.20625 17.1671 4.67872C17.1676 3.97173 17.4486 3.29382 17.9484 2.79381C18.4483 2.29379 19.1261 2.01252 19.8331 2.01172ZM5.16705 14.6787C4.63953 14.6789 4.12379 14.5227 3.68508 14.2297C3.24636 13.9368 2.90437 13.5203 2.70236 13.033C2.50034 12.5457 2.44738 12.0094 2.55018 11.492C2.65297 10.9746 2.9069 10.4993 3.27985 10.1262C3.65279 9.75314 4.12801 9.49903 4.64538 9.39604C5.16276 9.29305 5.69905 9.34581 6.18644 9.54764C6.67383 9.74947 7.09042 10.0913 7.38351 10.5299C7.67661 10.9685 7.83306 11.4842 7.83306 12.0117C7.83226 12.7186 7.55116 13.3964 7.05139 13.8963C6.55161 14.3963 5.87397 14.6777 5.16705 14.6787ZM19.8331 22.0117C19.3056 22.0117 18.7899 21.8553 18.3513 21.5623C17.9128 21.2692 17.5709 20.8527 17.3691 20.3653C17.1672 19.878 17.1144 19.3418 17.2173 18.8244C17.3202 18.3071 17.5742 17.8319 17.9472 17.4589C18.3202 17.0859 18.7954 16.8319 19.3127 16.729C19.8301 16.6261 20.3663 16.6789 20.8537 16.8807C21.341 17.0826 21.7575 17.4244 22.0506 17.863C22.3436 18.3016 22.5001 18.8172 22.5001 19.3447C22.4995 20.0519 22.2184 20.7299 21.7183 21.23C21.2183 21.73 20.5402 22.0112 19.8331 22.0117Z" fill="#21216F"/>
</g>
<defs>
<clipPath id="clip0_734_3401">
<rect width="24" height="24" fill="white" transform="translate(0.5 0.0117188)"/>
</clipPath>
</defs>
</svg>
