<svg width="24" height="25" viewBox="0 0 24 25" fill="none" xmlns="http://www.w3.org/2000/svg">
<g clip-path="url(#clip0_65_2743)">
<path d="M19 24.0117H13.083C6.08201 24.0117 0.470012 19.2197 0.0300115 12.8657C-0.210988 9.38968 1.05701 5.98867 3.50901 3.53267C5.96001 1.07767 9.36401 -0.193326 12.836 0.0396741C19.096 0.465674 24 5.87267 24 12.3517V19.0117C24 21.7687 21.757 24.0117 19 24.0117ZM12.016 2.01267C9.35901 2.01267 6.80701 3.06167 4.92401 4.94667C2.88101 6.99267 1.82401 9.82867 2.02501 12.7277C2.39801 18.1077 7.04901 22.0117 13.084 22.0117H19.001C20.655 22.0117 22.001 20.6657 22.001 19.0117V12.3517C22.001 6.92067 17.917 2.38967 12.702 2.03667C12.473 2.02067 12.244 2.01367 12.017 2.01367L12.016 2.01267ZM15 9.63667C15 9.29167 14.72 9.01268 14.375 9.01167C13.976 9.01167 13.595 9.18468 13.333 9.48567L12 11.0117L10.648 9.46367C10.397 9.17667 10.07 9.01167 9.62501 9.01167C9.28001 9.01167 9.00001 9.29167 9.00001 9.63667V14.3867C9.00001 14.7317 9.28001 15.0117 9.62501 15.0117C9.97001 15.0117 10.25 14.7317 10.25 14.3867L10.252 11.1177L11.534 12.5067C11.785 12.7787 12.215 12.7787 12.466 12.5067L13.747 11.1187V14.3857H13.75C13.75 14.7307 14.03 15.0107 14.375 15.0107C14.72 15.0107 15 14.7307 15 14.3857L14.997 14.3697L15 9.63567V9.63667ZM6.47001 11.4797C5.81201 11.2367 5.21301 10.9737 5.19801 10.9737C5.05501 10.8767 5.06001 10.7307 5.06801 10.6717C5.08001 10.5927 5.13701 10.3987 5.43001 10.3107C5.54901 10.2757 5.66601 10.2617 5.77901 10.2637C6.28801 10.2717 6.70501 10.5877 6.72501 10.6037C6.83501 10.6987 6.97401 10.7617 7.13001 10.7617C7.47501 10.7617 7.75501 10.4817 7.75501 10.1367C7.75501 9.93968 7.65801 9.77168 7.51601 9.65668C7.47901 9.62568 6.74301 9.00867 5.75001 9.01167C5.53401 9.01167 5.30501 9.04167 5.07001 9.11267C4.39901 9.31468 3.92401 9.84367 3.83101 10.4927C3.74401 11.1027 4.00901 11.6897 4.60801 12.0717C4.60801 12.0717 5.28601 12.3747 6.03801 12.6517C6.19701 12.7107 6.71001 12.9277 6.64801 13.2727C6.60201 13.5287 6.28701 13.7937 5.83801 13.7937C5.37001 13.7937 4.91901 13.6067 4.63201 13.2907C4.51801 13.1657 4.35701 13.0847 4.17401 13.0847C3.82901 13.0847 3.54901 13.3647 3.54901 13.7097C3.54901 13.8707 3.61401 14.0137 3.71301 14.1237C4.24001 14.6897 5.02201 15.0437 5.83701 15.0437C6.85801 15.0437 7.71701 14.3907 7.87701 13.4917C7.99801 12.8137 7.69101 11.9297 6.46901 11.4777L6.47001 11.4797ZM19.028 11.4797C18.37 11.2367 17.771 10.9737 17.756 10.9737C17.613 10.8767 17.618 10.7307 17.626 10.6717C17.638 10.5927 17.695 10.3987 17.988 10.3107C18.107 10.2757 18.224 10.2617 18.337 10.2637C18.846 10.2717 19.263 10.5877 19.283 10.6037C19.393 10.6987 19.532 10.7617 19.688 10.7617C20.033 10.7617 20.313 10.4817 20.313 10.1367C20.313 9.93968 20.216 9.77168 20.074 9.65668C20.037 9.62568 19.301 9.00867 18.308 9.01167C18.092 9.01167 17.863 9.04167 17.628 9.11267C16.957 9.31468 16.482 9.84367 16.389 10.4927C16.302 11.1027 16.567 11.6897 17.166 12.0717C17.166 12.0717 17.844 12.3747 18.596 12.6517C18.755 12.7107 19.268 12.9277 19.206 13.2727C19.16 13.5287 18.845 13.7937 18.396 13.7937C17.928 13.7937 17.477 13.6067 17.19 13.2907C17.076 13.1657 16.915 13.0847 16.732 13.0847C16.387 13.0847 16.107 13.3647 16.107 13.7097C16.107 13.8707 16.172 14.0137 16.271 14.1237C16.798 14.6897 17.58 15.0437 18.395 15.0437C19.416 15.0437 20.275 14.3907 20.435 13.4917C20.556 12.8137 20.249 11.9297 19.027 11.4777L19.028 11.4797Z" fill="#21216F"/>
</g>
<defs>
<clipPath id="clip0_65_2743">
<rect width="24" height="24" fill="white" transform="translate(0 0.0117188)"/>
</clipPath>
</defs>
</svg>
