<svg width="24" height="24" viewBox="0 0 24 24" fill="none" xmlns="http://www.w3.org/2000/svg">
<g id="sistema/sms" clip-path="url(#clip0_65_2743)">
<path id="Vector" d="M19 24H13.083C6.08201 24 0.470012 19.208 0.0300115 12.854C-0.210988 9.37796 1.05701 5.97696 3.50901 3.52096C5.96001 1.06596 9.36401 -0.205045 12.836 0.0279553C19.096 0.453955 24 5.86096 24 12.34V19C24 21.757 21.757 24 19 24ZM12.016 2.00096C9.35901 2.00096 6.80701 3.04996 4.92401 4.93496C2.88101 6.98096 1.82401 9.81696 2.02501 12.716C2.39801 18.096 7.04901 22 13.084 22H19.001C20.655 22 22.001 20.654 22.001 19V12.34C22.001 6.90896 17.917 2.37796 12.702 2.02496C12.473 2.00896 12.244 2.00196 12.017 2.00196L12.016 2.00096ZM15 9.62496C15 9.27996 14.72 9.00096 14.375 8.99996C13.976 8.99996 13.595 9.17296 13.333 9.47396L12 11L10.648 9.45196C10.397 9.16496 10.07 8.99996 9.62501 8.99996C9.28001 8.99996 9.00001 9.27996 9.00001 9.62496V14.375C9.00001 14.72 9.28001 15 9.62501 15C9.97001 15 10.25 14.72 10.25 14.375L10.252 11.106L11.534 12.495C11.785 12.767 12.215 12.767 12.466 12.495L13.747 11.107V14.374H13.75C13.75 14.719 14.03 14.999 14.375 14.999C14.72 14.999 15 14.719 15 14.374L14.997 14.358L15 9.62396V9.62496ZM6.47001 11.468C5.81201 11.225 5.21301 10.962 5.19801 10.962C5.05501 10.865 5.06001 10.719 5.06801 10.66C5.08001 10.581 5.13701 10.387 5.43001 10.299C5.54901 10.264 5.66601 10.25 5.77901 10.252C6.28801 10.26 6.70501 10.576 6.72501 10.592C6.83501 10.687 6.97401 10.75 7.13001 10.75C7.47501 10.75 7.75501 10.47 7.75501 10.125C7.75501 9.92796 7.65801 9.75996 7.51601 9.64496C7.47901 9.61396 6.74301 8.99696 5.75001 8.99996C5.53401 8.99996 5.30501 9.02996 5.07001 9.10096C4.39901 9.30296 3.92401 9.83196 3.83101 10.481C3.74401 11.091 4.00901 11.678 4.60801 12.06C4.60801 12.06 5.28601 12.363 6.03801 12.64C6.19701 12.699 6.71001 12.916 6.64801 13.261C6.60201 13.517 6.28701 13.782 5.83801 13.782C5.37001 13.782 4.91901 13.595 4.63201 13.279C4.51801 13.154 4.35701 13.073 4.17401 13.073C3.82901 13.073 3.54901 13.353 3.54901 13.698C3.54901 13.859 3.61401 14.002 3.71301 14.112C4.24001 14.678 5.02201 15.032 5.83701 15.032C6.85801 15.032 7.71701 14.379 7.87701 13.48C7.99801 12.802 7.69101 11.918 6.46901 11.466L6.47001 11.468ZM19.028 11.468C18.37 11.225 17.771 10.962 17.756 10.962C17.613 10.865 17.618 10.719 17.626 10.66C17.638 10.581 17.695 10.387 17.988 10.299C18.107 10.264 18.224 10.25 18.337 10.252C18.846 10.26 19.263 10.576 19.283 10.592C19.393 10.687 19.532 10.75 19.688 10.75C20.033 10.75 20.313 10.47 20.313 10.125C20.313 9.92796 20.216 9.75996 20.074 9.64496C20.037 9.61396 19.301 8.99696 18.308 8.99996C18.092 8.99996 17.863 9.02996 17.628 9.10096C16.957 9.30296 16.482 9.83196 16.389 10.481C16.302 11.091 16.567 11.678 17.166 12.06C17.166 12.06 17.844 12.363 18.596 12.64C18.755 12.699 19.268 12.916 19.206 13.261C19.16 13.517 18.845 13.782 18.396 13.782C17.928 13.782 17.477 13.595 17.19 13.279C17.076 13.154 16.915 13.073 16.732 13.073C16.387 13.073 16.107 13.353 16.107 13.698C16.107 13.859 16.172 14.002 16.271 14.112C16.798 14.678 17.58 15.032 18.395 15.032C19.416 15.032 20.275 14.379 20.435 13.48C20.556 12.802 20.249 11.918 19.027 11.466L19.028 11.468Z" fill="#21216F"/>
</g>
<defs>
<clipPath id="clip0_65_2743">
<rect width="24" height="24" fill="white"/>
</clipPath>
</defs>
</svg>
