<svg width="24" height="33" viewBox="0 0 24 33" fill="none" xmlns="http://www.w3.org/2000/svg">
<g id="Camada_x0020_1">
<path id="Vector" fill-rule="evenodd" clip-rule="evenodd" d="M0 29.3444H2.66681V32.0009H0V29.3444ZM2.7992 26.6932C3.34259 26.6932 3.83904 26.3971 4.12933 25.9377C5.80538 23.2855 8.09083 21.3804 11.5622 21.3804C13.4964 21.3804 14.9383 21.609 16.4971 22.5079C18.1299 23.4497 19.451 24.759 20.3148 26.4412C20.4486 26.7023 20.5876 27.0595 20.7071 27.3622C21.1189 28.417 21.2877 29.4198 21.3098 30.633C21.3267 31.5579 21.945 31.984 22.5828 32.0061H22.688C23.3492 31.9827 24 31.5332 24 30.7564C24 28.3546 23.4336 26.3957 22.3555 24.5876C20.6071 22.1364 19.9017 21.1842 16.8764 19.6917C15.7502 19.137 14.0147 18.7278 12.6859 18.6954C12.3689 18.6876 12.3351 18.6252 12 18.6252C11.6805 18.6252 11.6545 18.6798 11.3752 18.6928C9.07339 18.8084 7.15739 19.4657 5.27517 20.7179C3.8885 21.6402 2.53172 23.1641 1.58182 24.7688C1.0516 25.6646 1.75829 26.6932 2.7992 26.6932ZM17.3115 8.12815C17.2466 10.9976 14.9136 13.3176 11.9376 13.3176C9.08638 13.3176 6.68716 10.9171 6.68716 8.0684C6.68716 5.03398 9.02793 2.69321 12.0624 2.69321C14.924 2.69321 17.3128 5.04956 17.3115 8.12815ZM20.0004 8.38016C20.0004 6.73824 19.8952 6.0251 19.2496 4.56894C18.6859 3.29594 17.7259 2.29053 16.653 1.47866C16.3308 1.23575 15.8021 0.917501 15.4371 0.756427C14.4005 0.297886 13.325 0.0471827 12.2598 0.00561523H11.6194C9.67222 0.0822552 7.80169 0.860346 6.32734 2.33339C5.04265 3.61809 3.99957 5.67437 3.99957 7.63064C3.99957 9.27386 4.10608 9.9857 4.75038 11.4419C5.07902 12.1836 5.77787 13.1266 6.32734 13.6787C6.51829 13.8684 6.6417 13.9372 6.82875 14.1152C7.92769 15.1647 10.0333 16.0052 11.6246 16.0052C13.2678 16.0052 13.9796 15.9 15.4371 15.2544C17.9117 14.1593 19.9212 11.1483 20.0004 8.38016Z" fill="#21216F"/>
</g>
</svg>
