<svg width="24" height="24" viewBox="0 0 24 24" fill="none" xmlns="http://www.w3.org/2000/svg">
<g clip-path="url(#clip0_637_3826)">
<path d="M7.00003 14C9.20603 14 11 12.206 11 10C11 7.794 9.20603 6 7.00003 6C4.79403 6 3.00003 7.794 3.00003 10C3.00003 12.206 4.79403 14 7.00003 14ZM7.00003 8C8.10303 8 9.00003 8.897 9.00003 10C9.00003 11.103 8.10303 12 7.00003 12C5.89703 12 5.00003 11.103 5.00003 10C5.00003 8.897 5.89703 8 7.00003 8ZM24 5V13C24 15.757 21.757 18 19 18H15C14.448 18 14 17.553 14 17V15C14 14.447 14.448 14 15 14H18C18.552 14 19 14.447 19 15V16C20.654 16 22 14.654 22 13V5C22 3.346 20.654 2 19 2H9.46503C8.39703 2 7.40103 2.575 6.86603 3.501C6.58903 3.979 5.97803 4.144 5.50003 3.865C5.02103 3.589 4.85803 2.977 5.13503 2.499C6.02703 0.958 7.68603 0 9.46603 0H19.001C21.758 0 24 2.243 24 5Z" fill="#21216F"/>
<path d="M2.29074 22.0076H0.291138V24H2.29074V22.0076Z" fill="#21216F"/>
<path d="M14 23C14 23.553 13.552 24 13 24C12.448 24 12 23.553 12 23C12 20.243 9.75703 18 7.00003 18C5.20146 18 3.62163 18.9546 2.74059 20.3837C2.51858 20.7438 2.14426 21 1.72121 21C1.0081 21 0.498868 20.3085 0.838087 19.6812C2.02241 17.4913 4.3403 16 7.00003 16C10.86 16 14 19.141 14 23Z" fill="#21216F"/>
<path d="M16 4V11M20 7.5H12" stroke="#21216F" stroke-width="2" stroke-linecap="round" stroke-linejoin="round"/>
</g>
<defs>
<clipPath id="clip0_637_3826">
<rect width="24" height="24" fill="white"/>
</clipPath>
</defs>
</svg>
