<svg width="24" height="24" viewBox="0 0 24 24" fill="none" xmlns="http://www.w3.org/2000/svg">
<g clip-path="url(#clip0_637_3815)">
<path d="M7.00001 14C9.21001 14 11 12.21 11 10C11 7.79 9.21001 6 7.00001 6C4.79001 6 3.00001 7.79 3.00001 10C3.00001 12.21 4.79001 14 7.00001 14ZM7.00001 8C8.10001 8 9.00001 8.9 9.00001 10C9.00001 11.1 8.10001 12 7.00001 12C5.90001 12 5.00001 11.1 5.00001 10C5.00001 8.9 5.90001 8 7.00001 8ZM24 5V13C24 15.76 21.76 18 19 18H15C14.45 18 14 17.55 14 17C14 16.45 14.45 16 15 16H19C20.65 16 22 14.65 22 13V5C22 3.35 20.65 2 19 2H9.46001C8.39001 2 7.40001 2.58 6.86001 3.5C6.58001 3.98 5.97001 4.14 5.49001 3.87C5.01001 3.59 4.85001 2.98 5.13001 2.5C6.03001 0.96 7.69001 0 9.46001 0H19C21.76 0 24 2.24 24 5ZM13.67 10.92L16.59 8H15C14.45 8 14 7.55 14 7C14 6.45 14.45 6 15 6H18C19.1 6 20 6.9 20 8V11C20 11.55 19.55 12 19 12C18.45 12 18 11.55 18 11V9.41L15.08 12.33C14.62 12.79 14 13.04 13.37 13.04C13.15 13.04 12.93 13.01 12.71 12.95C12.18 12.8 11.87 12.25 12.02 11.72C12.17 11.19 12.72 10.88 13.26 11.03C13.38 11.06 13.54 11.05 13.67 10.92Z" fill="#21216F"/>
<path d="M2.29062 22.0076H0.291016V24H2.29062V22.0076Z" fill="#21216F"/>
<path d="M14 23C14 23.55 13.55 24 13 24C12.45 24 12 23.55 12 23C12 20.24 9.76001 18 7.00001 18C5.19905 18 3.6195 18.9538 2.73923 20.3834C2.51741 20.7437 2.14315 21 1.72009 21C1.00746 21 0.498523 20.309 0.837383 19.6821C2.0215 17.4914 4.33976 16 7.00001 16C10.86 16 14 19.14 14 23Z" fill="#21216F"/>
</g>
<defs>
<clipPath id="clip0_637_3815">
<rect width="24" height="24" fill="white"/>
</clipPath>
</defs>
</svg>
